<?xml version="1.0" encoding="utf-8"?>
<!-- Svg Vector Icons : http://www.onlinewebfonts.com/icon -->
<!DOCTYPE svg PUBLIC "-//W3C//DTD SVG 1.1//EN" "http://www.w3.org/Graphics/SVG/1.1/DTD/svg11.dtd">
<svg version="1.1" xmlns="http://www.w3.org/2000/svg" xmlns:xlink="http://www.w3.org/1999/xlink" x="0px" y="0px" viewBox="0 0 1000 1000" enable-background="new 0 0 1000 1000" xml:space="preserve">
<metadata> Svg Vector Icons : http://www.onlinewebfonts.com/icon </metadata>
<g><path d="M500,10C229.4,10,10,229.4,10,500c0,270.6,219.4,490,490,490c270.6,0,490-219.4,490-490C990,229.4,770.6,10,500,10z M500,925.7C264.9,925.7,74.3,735.1,74.3,500C74.3,264.9,264.9,74.3,500,74.3c235.1,0,425.7,190.6,425.7,425.7C925.7,735.1,735.1,925.7,500,925.7z"/><path d="M743.9,299.4c-18.3-14.7-45-11.8-59.6,6.5L459.6,618.6L309.2,512.1c-17.8-14.9-43.7-12-57.9,6.5c-14.2,18.5-11.2,45.6,6.5,60.5l177.6,125.8c9.6,8,21.6,10.9,32.9,8.9c14.2,1.8,28.9-3.5,38.4-15.4L750.6,359C765.2,340.8,762.2,314.1,743.9,299.4z"/></g>
</svg>