<svg xmlns="http://www.w3.org/2000/svg" id="Layer_1" x="0" y="0" width="329.3" height="75.7" viewBox="0 0 329.3 75.7" style="enable-background:new 0 0 329.333 75.667;version:1"><g><g><path d="M51.1 18.6c0.3-0.3 0.6-0.4 0.8-0.5 0.3-0.1 0.6-0.1 0.9-0.1H54.2c0.3 0 0.7 0 0.9 0.1 0.3 0 0.4 0.1 0.4 0.2 0 0.1 0 0.2 0 0.4 0 0.2 0 0.3 0 0.4v10.4c0 0.4 0 0.7-0.1 1 0 0.3-0.1 0.5-0.2 0.6 -0.1 0.2-0.3 0.3-0.5 0.4 -0.2 0.1-0.6 0.2-1 0.2 0 0-0.1 0-0.2 0 -0.2 0-0.3 0-0.5 0.1 -0.1 0.1-0.3 0.2-0.3 0.5 0 0.3 0.2 0.4 0.3 0.4 0.1 0 0.2 0 0.4 0 0.5 0 1 0 1.5-0.1 1-0.1 2.2-0.1 3.2 0 0.6 0 1.1 0.1 1.7 0.1 0.2 0 0.3 0 0.4 0 0.2 0 0.3-0.2 0.3-0.5 0-0.1-0.1-0.4-0.5-0.4 -0.2 0-0.4 0-0.7-0.1l-0.2 0c-0.3 0-0.6-0.1-0.9-0.2 -0.2-0.1-0.4-0.4-0.5-0.7 0-0.2-0.1-0.4-0.1-0.7 0-0.2 0-0.5 0-0.7 0-1.3 0-2.5 0-3.8 0-1.2 0-2.5 0-3.8l0-2.6c0-0.3 0-0.6 0.1-0.7 0-0.2 0.1-0.2 0.1-0.3 0 0 0.1 0 0.1 0h0c0.2 0 0.4 0 0.7 0 0.4 0 0.9 0 1.5 0 0.3 0 0.6 0.1 0.9 0.1 0.3 0 0.5 0.1 0.7 0.2 0.2 0.1 0.3 0.2 0.4 0.4 0.1 0.2 0.1 0.4 0.1 0.6 0 0.2 0 0.5-0.1 0.7 0 0.2 0 0.4 0 0.6 0 0.1 0.1 0.3 0.4 0.3 0.2 0 0.5-0.1 0.6-0.6 0.1-0.3 0.2-0.7 0.2-1.1 0.1-0.4 0.1-0.9 0.1-1.3 0-0.4 0.1-0.8 0.2-1.1 0.1-0.2 0.1-0.4 0-0.6 -0.1-0.2-0.2-0.4-0.6-0.4 -0.1 0-0.2 0-0.3 0.2 -0.1 0.1-0.1 0.2-0.2 0.3 -0.1 0.1-0.2 0.2-0.3 0.3 -0.1 0.1-0.2 0.1-0.4 0.2 -0.2 0-0.4 0-0.6 0.1 -0.9 0-1.8 0-2.6 0 -1.4 0-3 0-4.6 0 -0.9 0-1.8-0.1-2.6-0.1 -0.2 0-0.3-0.1-0.4-0.1 -0.1-0.1-0.2-0.2-0.3-0.2 -0.1-0.1-0.1-0.2-0.2-0.2 -0.1-0.1-0.2-0.2-0.3-0.2 -0.2 0-0.4 0.1-0.5 0.2 -0.1 0.1-0.2 0.2-0.3 0.4 -0.1 0.2-0.1 0.3-0.1 0.5l0 0.5c-0.1 0.7-0.2 1.3-0.3 1.7 -0.1 0.4-0.2 0.8-0.2 1 0 0.2 0.1 0.3 0.2 0.4 0.1 0.1 0.2 0.1 0.4 0.1 0.1 0 0.2-0.1 0.4-0.4 0.1-0.2 0.3-0.4 0.4-0.7 0.1-0.3 0.3-0.5 0.4-0.7C51 18.7 51.1 18.6 51.1 18.6" fill="#0057A8"/><path d="M67.9 28.9c0.2-0.5 0.3-1 0.6-1.6 0.2-0.6 0.4-1.1 0.7-1.7 0.2 0 0.4-0.1 0.6-0.1 0.6 0 1.2 0 1.7 0 0.3 0 0.5 0 0.7 0h0.4c0.2 0 0.5 0 0.7 0 0.2 0 0.3 0.1 0.4 0.2 0 0 0 0 0.1 0.2 0 0.1 0.1 0.2 0.2 0.4 0.2 0.5 0.4 1 0.6 1.5 0.2 0.5 0.4 0.9 0.5 1.3l0.4 1c0.1 0.3 0.2 0.5 0.2 0.6l0 0.1c0 0 0 0.1 0 0.1 0 0.2-0.1 0.3-0.2 0.3 -0.2 0.1-0.4 0.1-0.6 0.1 -0.2 0-0.5 0-0.7 0.1 -0.4 0.1-0.4 0.3-0.4 0.4 0 0.2 0.1 0.3 0.2 0.4 0.1 0.1 0.3 0.2 0.4 0.2 0.5 0 1 0 1.5-0.1 0.8-0.1 1.7-0.1 2.5 0 0.3 0 0.7 0.1 1.1 0.1h0.2c0.2 0 0.3 0 0.5-0.1 0.3-0.1 0.3-0.3 0.3-0.4 0-0.2-0.1-0.4-0.4-0.5 -0.2-0.1-0.4-0.1-0.6-0.1 -0.2 0-0.4-0.1-0.7-0.2 -0.2-0.1-0.4-0.2-0.5-0.5 -0.7-1.5-1.4-3.1-2.1-4.6 -0.6-1.5-1.3-3.1-1.9-4.6 -0.3-0.8-0.7-1.6-1-2.5 -0.3-0.8-0.7-1.7-1-2.5 0-0.1-0.1-0.2-0.1-0.2 -0.1-0.1-0.2-0.2-0.3-0.2 -0.2 0-0.3 0-0.3 0.1 0 0.1-0.1 0.1-0.1 0.2 -0.5 1.3-1.1 2.6-1.6 3.9 -0.5 1.3-1.1 2.6-1.6 3.9 -0.3 0.8-0.6 1.5-0.9 2.3 -0.3 0.7-0.6 1.5-0.9 2.3 0 0.1-0.1 0.3-0.2 0.5 -0.1 0.2-0.2 0.4-0.3 0.6 -0.1 0.2-0.1 0.3-0.2 0.5l-0.1 0.1c-0.1 0.2-0.2 0.3-0.2 0.4 -0.1 0.2-0.2 0.3-0.4 0.3 -0.2 0.1-0.3 0.1-0.5 0.1 -0.2 0-0.3 0.1-0.5 0.1 -0.2 0.1-0.2 0.2-0.2 0.5 0 0.1 0 0.2 0.1 0.3 0.1 0.1 0.2 0.2 0.3 0.2 0.3 0 0.6 0 0.9-0.1 0.6-0.1 1.5-0.1 2.3 0 0.5 0.1 1 0.1 1.4 0.1 0.1 0 0.3 0 0.4-0.2 0.1-0.1 0.2-0.2 0.2-0.4 0-0.3-0.2-0.5-0.4-0.5 -0.2 0-0.5-0.1-0.8-0.1 -0.3 0-0.5-0.1-0.7-0.2 -0.1 0-0.3-0.1-0.3-0.5 0 0 0-0.1 0.1-0.6C67.6 29.8 67.8 29.4 67.9 28.9M69.7 24.3c0.3-0.6 0.5-1.1 0.6-1.5 0.2-0.4 0.4-0.8 0.5-1.2 0.1-0.4 0.3-0.7 0.4-1 0.1-0.3 0.2-0.6 0.4-0.9 0 0.1 0.1 0.2 0.1 0.3 0.1 0.3 0.3 0.8 0.4 1.3 0.2 0.5 0.4 1 0.6 1.6 0.2 0.5 0.4 1 0.5 1.5 0 0 0 0-0.1 0 -0.9 0-1.6 0-2.1 0 -0.5 0-0.9 0-1.1 0H69.7z" fill="#0057A8"/><path d="M96.2 33.4c0.1 0 0.2 0 0.4 0 0.1 0 0.3 0 0.4 0 0.4 0 0.6 0 0.8-0.1l0 0c0.2-0.2 0.2-0.3 0.2-0.4 0-0.1 0-0.3-0.4-0.4 -0.1 0-0.3-0.1-0.5-0.2 -0.6-0.1-1.1-0.4-1.5-0.8 -0.4-0.4-0.9-0.9-1.2-1.4 -0.4-0.5-0.7-1.1-1-1.7 -0.3-0.6-0.6-1.2-0.9-1.7 -0.3-0.6-0.5-1-0.8-1.4 -0.2-0.3-0.4-0.5-0.6-0.7 0.3-0.2 0.6-0.3 0.9-0.5 0.4-0.2 0.7-0.5 1.1-0.9 0.3-0.3 0.6-0.7 0.8-1.1 0.2-0.4 0.3-0.9 0.3-1.3 0-0.9-0.2-1.6-0.5-2.2 -0.3-0.6-0.7-1-1.2-1.3 -0.5-0.3-1-0.6-1.6-0.7 -0.5-0.1-1.1-0.2-1.6-0.2 -0.5 0-1.1 0-1.6 0 -0.5 0-1.1 0-1.6 0h-1.9c-0.2 0-0.3 0-0.5 0 -0.3 0-0.7 0-1 0 -0.1 0-0.3 0.1-0.3 0.5 0 0.2 0.1 0.3 0.3 0.4 0.1 0 0.3 0.1 0.5 0.1l0.6 0c0.2 0 0.4 0.1 0.5 0.1 0.2 0.1 0.3 0.2 0.4 0.3 0.1 0.1 0.1 0.3 0.1 0.6 0 1.2 0 2.4 0 3.6 0 1.2 0 2.4 0 3.6v4.4c0 0.3 0 0.5-0.1 0.6 -0.1 0.2-0.2 0.3-0.4 0.4 -0.2 0.1-0.3 0.2-0.5 0.2 -0.2 0-0.4 0.1-0.6 0.1 -0.2 0-0.3 0.1-0.5 0.1 -0.2 0.1-0.3 0.2-0.3 0.3 0 0.3 0 0.4 0.1 0.5 0.1 0.1 0.2 0.1 0.4 0.1 0.5 0 0.9 0 1.3-0.1 0.9-0.1 1.9-0.1 2.8 0 0.5 0 1 0.1 1.6 0.1 0.3 0 0.5 0 0.7-0.1 0.1 0 0.3-0.1 0.3-0.5 0-0.2-0.1-0.3-0.2-0.3 -0.1 0-0.2 0-0.4 0 -0.1 0-0.1 0-0.1 0l0 0c-0.3-0.1-0.6-0.1-0.8-0.1 -0.2 0-0.4-0.1-0.5-0.2 -0.1-0.1-0.2-0.2-0.3-0.3 -0.1-0.2-0.1-0.4-0.1-0.8v-4.4c0-0.4 0.1-0.6 0.1-0.6 0 0 0.1-0.1 0.4-0.1 0.5 0 0.9 0.1 1.2 0.4 0.3 0.2 0.6 0.6 0.9 0.9 0.3 0.4 0.5 0.8 0.7 1.3 0.2 0.5 0.4 1 0.7 1.4 0.4 1.1 1.1 2.1 1.9 2.9C93.9 32.7 95 33.2 96.2 33.4M91.5 22.4c-0.2 0.4-0.5 0.7-0.8 1 -0.3 0.2-0.8 0.4-1.3 0.5 -0.5 0.1-1 0.1-1.6 0.1 -0.2 0-0.4 0-0.5-0.1 -0.1 0-0.1-0.1-0.2-0.1 0-0.1 0-0.2 0-0.3 0-0.2 0-0.3 0-0.6 0-0.6 0-1.2 0-1.9 0-0.7 0-1.4 0-1.9v-0.7c0-0.3 0.1-0.5 0.2-0.7 0.1-0.1 0.3-0.2 0.9-0.2 0.5 0 1 0.1 1.4 0.2 0.4 0.1 0.8 0.4 1.1 0.6s0.6 0.6 0.7 1c0.2 0.4 0.3 0.9 0.3 1.5C91.8 21.5 91.7 22 91.5 22.4" fill="#0057A8"/><path d="M102 17.9h1.3c0.3 0 0.7 0 0.9 0.1 0.3 0 0.4 0.1 0.4 0.2 0 0.1 0 0.3 0 0.4 0 0.2 0 0.3 0 0.4v10.4c0 0.4 0 0.7-0.1 1 0 0.2-0.1 0.5-0.2 0.6 -0.1 0.2-0.3 0.3-0.5 0.4 -0.2 0.1-0.6 0.2-1 0.2 0 0-0.1 0-0.2 0 -0.2 0-0.3 0-0.5 0.1 -0.1 0.1-0.3 0.2-0.3 0.5 0 0.3 0.2 0.4 0.3 0.4 0.1 0 0.3 0 0.4 0 0.5 0 1 0 1.5-0.1 1-0.1 2.2-0.1 3.2 0 0.6 0 1.1 0.1 1.7 0.1 0.2 0 0.3 0 0.4 0 0.2 0 0.3-0.2 0.3-0.5 0-0.1-0.1-0.4-0.5-0.4 -0.2 0-0.4 0-0.7-0.1l-0.2 0c-0.3 0-0.6-0.1-0.9-0.2 -0.2-0.1-0.4-0.3-0.5-0.7 0-0.2-0.1-0.4-0.1-0.7 0-0.2 0-0.5 0-0.7 0-1.3 0-2.5 0-3.8 0-1.2 0-2.5 0-3.8l0-2.6c0-0.3 0-0.6 0.1-0.7 0-0.2 0.1-0.2 0.1-0.3 0 0 0.1-0.1 0.1 0 0.2 0 0.4 0 0.7 0 0.4 0 0.9 0 1.5 0 0.3 0 0.6 0.1 0.9 0.1 0.3 0 0.5 0.1 0.7 0.2 0.2 0.1 0.3 0.2 0.4 0.4 0.1 0.2 0.1 0.4 0.1 0.6 0 0.2 0 0.5-0.1 0.7 0 0.2 0 0.4 0 0.6 0 0.1 0.1 0.3 0.4 0.3 0.3 0 0.5-0.2 0.6-0.6 0.1-0.3 0.2-0.7 0.2-1.1 0.1-0.4 0.1-0.9 0.1-1.3 0-0.4 0.1-0.8 0.2-1.1 0.1-0.2 0.1-0.4 0-0.6 -0.1-0.2-0.2-0.4-0.6-0.4 -0.1 0-0.2 0-0.3 0.2 -0.1 0.1-0.1 0.2-0.2 0.3 -0.1 0.1-0.2 0.2-0.3 0.3 -0.1 0.1-0.2 0.1-0.4 0.2 -0.2 0-0.4 0-0.6 0.1 -0.9 0-1.8 0-2.6 0 -1.4 0-3 0-4.6 0 -0.9 0-1.8 0-2.6-0.1 -0.2 0-0.3-0.1-0.4-0.1 -0.1-0.1-0.2-0.2-0.3-0.2 -0.1-0.1-0.1-0.2-0.2-0.2 -0.1-0.1-0.2-0.2-0.3-0.2 -0.2 0-0.4 0.1-0.5 0.2 -0.1 0.1-0.2 0.2-0.3 0.4 -0.1 0.2-0.1 0.3-0.1 0.5l0 0.5c-0.1 0.7-0.2 1.3-0.3 1.7 -0.1 0.4-0.2 0.8-0.2 1 0 0.2 0.1 0.3 0.2 0.4 0.1 0.1 0.2 0.1 0.4 0.1 0.1 0 0.2-0.1 0.4-0.4 0.1-0.2 0.3-0.4 0.4-0.7 0.1-0.2 0.2-0.5 0.4-0.7 0.1-0.3 0.2-0.4 0.3-0.4 0.3-0.3 0.6-0.4 0.8-0.5C101.4 18 101.7 17.9 102 17.9" fill="#0057A8"/><path d="M123.5 32.9c0.6 0 1.3 0 1.9-0.1 0.6-0.1 1.3-0.3 1.9-0.5 0.7-0.3 1.3-0.7 1.7-1.2 0.4-0.5 0.7-1.1 0.9-1.7 0.2-0.6 0.3-1.3 0.3-2 0-0.7 0.1-1.4 0.1-2 0-0.4 0-0.8 0-1.2 0-0.4 0-0.8 0-1.2 0-0.4 0-0.9 0-1.5 0-0.6 0-1.1 0-1.7 0-0.5 0-1 0.1-1.4 0.1-0.5 0.1-0.6 0.2-0.6 0 0 0.1-0.1 0.4-0.1 0.2 0 0.4-0.1 0.7-0.1 0.2-0.1 0.5-0.1 0.6-0.2 0.3-0.1 0.3-0.3 0.3-0.5 0-0.1-0.1-0.3-0.4-0.4l0 0c-0.4 0-0.8 0-1.2 0 -0.8 0-1.5 0-2.3 0 -0.4 0-0.8 0-1.1 0 -0.1 0-0.2 0-0.4 0 -0.1 0-0.2 0.1-0.2 0.4 0 0.3 0.1 0.5 0.3 0.5 0.2 0.1 0.3 0.2 0.5 0.2 0.2 0 0.4 0.1 0.6 0.1 0.2 0 0.3 0.1 0.4 0.2 0.1 0.1 0.2 0.3 0.2 0.6 0 0.3 0.1 0.6 0.1 1 0 0.4 0 0.8 0 1.2 0 0.4 0 0.8 0 1.1v4.6c0 0.4 0 0.8-0.1 1.2 -0.1 0.7-0.3 1.3-0.5 1.8 -0.2 0.5-0.5 0.9-0.9 1.2 -0.3 0.3-0.8 0.5-1.3 0.6 -0.5 0.1-1.1 0.2-1.9 0.2 -0.6 0-1.2-0.1-1.6-0.2 -0.5-0.1-0.9-0.3-1.2-0.7 -0.3-0.3-0.6-0.8-0.8-1.3 -0.2-0.6-0.4-1.3-0.4-2.2 0-0.4 0-0.9-0.1-1.3 0-0.4 0-0.9 0-1.3v-4c0-0.2 0-0.4 0-0.7 0-0.2 0-0.5 0-0.7 0-0.2 0-0.4 0.1-0.6 0-0.2 0.1-0.3 0.1-0.4 0.1-0.2 0.2-0.3 0.4-0.4 0.2-0.1 0.5-0.1 0.7-0.2 0.2 0 0.5-0.1 0.7-0.2 0.3-0.1 0.4-0.3 0.4-0.5 0-0.2-0.1-0.4-0.4-0.4 -0.2 0-0.3 0-0.5 0 -0.5 0-1 0-1.5 0.1 -0.9 0.1-1.9 0.1-2.8 0 -0.5 0-0.9-0.1-1.4-0.1 -0.4 0-0.6 0.2-0.6 0.5 0 0.1 0.1 0.3 0.2 0.3 0.1 0.1 0.2 0.1 0.3 0.1 0.1 0 0.2 0 0.3 0 0.1 0 0.2 0 0.3 0h0.2c0.3 0 0.4 0.1 0.6 0.2 0.1 0.1 0.2 0.3 0.3 0.5 0.1 0.2 0.1 0.4 0.1 0.7 0 0.3 0 0.5 0 0.7 0 1.2 0 2.4 0 3.6 0 1.2 0 2.4 0 3.6v0.8c0 0.1 0 0.3 0 0.4 0 0.1 0 0.3 0 0.4 0.1 0.8 0.3 1.6 0.6 2.1 0.3 0.6 0.8 1 1.3 1.4 0.5 0.3 1.1 0.6 1.8 0.7C122 32.8 122.7 32.9 123.5 32.9" fill="#0057A8"/><path d="M146.5 12.9c-0.3 0.2-0.4 0.6-0.4 0.9s0.1 0.7 0.4 0.9c0.3 0.2 0.6 0.3 0.9 0.3 0.3 0 0.7-0.1 0.9-0.3 0.3-0.2 0.4-0.5 0.4-0.9 0-0.3-0.1-0.6-0.4-0.9 -0.2-0.3-0.5-0.4-0.9-0.4C147.1 12.5 146.8 12.6 146.5 12.9" fill="#0057A8"/><path d="M153.9 31.1c0.4-0.5 0.7-1.1 0.9-1.7 0.2-0.6 0.3-1.3 0.3-2 0-0.7 0.1-1.4 0.1-2 0-0.4 0-0.8 0-1.2 0-0.4 0-0.8 0-1.2 0-0.4 0-0.9 0-1.5 0-0.6 0-1.1 0-1.7 0-0.5 0-1 0.1-1.4 0.1-0.5 0.1-0.6 0.2-0.6 0 0 0.1-0.1 0.4-0.1 0.2 0 0.4-0.1 0.7-0.1 0.2-0.1 0.5-0.1 0.6-0.2 0.3-0.1 0.3-0.3 0.3-0.5 0-0.1-0.1-0.3-0.4-0.4l0 0c-0.4 0-0.8 0-1.2 0 -0.8 0-1.5 0-2.3 0 -0.4 0-0.8 0-1.1 0 -0.1 0-0.2 0-0.4 0 -0.1 0-0.2 0.1-0.2 0.4 0 0.3 0.1 0.5 0.3 0.5 0.1 0.1 0.3 0.2 0.5 0.2 0.2 0 0.4 0.1 0.6 0.1 0.2 0 0.3 0.1 0.4 0.2 0.1 0.1 0.2 0.3 0.2 0.6 0 0.3 0.1 0.6 0.1 1 0 0.4 0 0.8 0 1.2 0 0.4 0 0.8 0 1.1v4.6c0 0.4 0 0.8-0.1 1.2 -0.1 0.7-0.3 1.3-0.5 1.8 -0.2 0.5-0.5 0.9-0.9 1.2 -0.3 0.3-0.8 0.5-1.3 0.7 -0.5 0.1-1.1 0.2-1.9 0.2 -0.6 0-1.2-0.1-1.6-0.2 -0.5-0.1-0.9-0.3-1.2-0.7 -0.3-0.3-0.6-0.8-0.8-1.3 -0.2-0.6-0.4-1.3-0.4-2.2 0-0.4 0-0.9-0.1-1.3 0-0.4 0-0.9 0-1.3v-4c0-0.2 0-0.4 0-0.7 0-0.2 0-0.5 0-0.7 0-0.2 0-0.4 0.1-0.6 0-0.2 0.1-0.3 0.1-0.4 0.1-0.2 0.2-0.3 0.4-0.4 0.2-0.1 0.5-0.1 0.7-0.2 0.3 0 0.5-0.1 0.7-0.2 0.2-0.1 0.4-0.3 0.4-0.5 0-0.2-0.1-0.4-0.4-0.4 -0.2 0-0.3 0-0.5 0 -0.5 0-1 0-1.5 0.1 -0.9 0.1-1.9 0.1-2.8 0 -0.5 0-0.9-0.1-1.4-0.1 -0.4 0-0.6 0.2-0.6 0.5 0 0.1 0.1 0.3 0.2 0.3 0.1 0.1 0.2 0.1 0.3 0.1 0.1 0 0.2 0 0.3 0 0.1 0 0.2 0 0.3 0h0.2c0.3 0 0.4 0.1 0.6 0.2 0.1 0.1 0.2 0.3 0.3 0.5 0.1 0.2 0.1 0.4 0.1 0.7 0 0.3 0 0.5 0 0.7 0 1.2 0 2.4 0 3.6 0 1.2 0 2.4 0 3.6v0.8c0 0.1 0 0.3 0 0.4 0 0.1 0 0.3 0 0.4 0.1 0.8 0.3 1.6 0.6 2.1 0.3 0.6 0.8 1 1.3 1.4 0.5 0.3 1.1 0.6 1.8 0.7 0.7 0.1 1.4 0.2 2.1 0.2 0.6 0 1.3 0 1.9-0.1 0.6-0.1 1.3-0.3 1.9-0.5C153 32 153.6 31.6 153.9 31.1" fill="#0057A8"/><path d="M151.6 15c0 0 0.1 0 0.1 0 0.4 0 0.7-0.1 1-0.4 0.3-0.2 0.4-0.6 0.4-1 0-0.4-0.1-0.7-0.4-0.9 -0.2-0.2-0.5-0.3-0.9-0.3 -0.4 0-0.7 0.1-0.9 0.4 -0.2 0.2-0.4 0.5-0.4 0.9 0 0.3 0.1 0.6 0.3 0.8C151.1 14.9 151.3 15 151.6 15" fill="#0057A8"/><path d="M170.7 32.7c0.2 0 0.3-0.3 0.4-0.5 0.1-0.3 0.2-0.6 0.3-1.1 0.1-0.4 0.3-1 0.5-1.5 0.2-0.6 0.5-1.1 0.8-1.7l0-0.1 0-0.1c-0.1-0.2-0.2-0.3-0.4-0.3 -0.2 0-0.4 0-0.6 0.1 0 0-0.1 0.1-0.3 0.5 -0.2 0.3-0.3 0.6-0.6 0.9 -0.2 0.3-0.4 0.7-0.7 1 -0.2 0.3-0.5 0.5-0.7 0.6 -0.1 0.1-0.4 0.2-0.7 0.3 -0.3 0.1-0.7 0.2-1.2 0.3 -0.4 0.1-0.9 0.1-1.3 0 -0.4-0.1-0.8-0.2-1.2-0.5 -0.1-0.1-0.1-0.2-0.2-0.4 -0.1-0.2-0.1-0.5-0.1-0.7 0-0.3 0-0.6-0.1-0.9 0-0.3 0-0.6 0-0.8v-0.8c0-1.3 0-2.6 0-3.8 0-1.3 0-2.5 0-3.8 0-0.1 0-0.2 0-0.4 0-0.2 0-0.3 0-0.5 0-0.2 0.1-0.3 0.1-0.4 0-0.1 0.1-0.2 0.2-0.3 0.1-0.1 0.3-0.2 0.5-0.2l0.7-0.1c0.2 0 0.4-0.1 0.6-0.1 0.2-0.1 0.3-0.2 0.3-0.5 0-0.2-0.1-0.3-0.2-0.4l0 0h0c-0.6 0-1.2 0-1.6 0 -0.9 0.1-2 0.1-3 0 -0.5-0.1-1-0.1-1.5-0.1 -0.2 0-0.3 0-0.5 0 -0.1 0-0.4 0.1-0.4 0.5 0 0.3 0.2 0.4 0.4 0.5 0.2 0 0.5 0.1 0.8 0.1 0.3 0 0.5 0.1 0.8 0.2 0.2 0.1 0.3 0.3 0.4 0.5 0.1 0.3 0.1 0.6 0.1 0.9v6.3c0 0.4 0 0.9 0 1.5 0 0.6 0 1.1 0 1.7 0 0.5 0 1-0.1 1.5 -0.1 0.4-0.2 0.7-0.3 0.9 -0.2 0.2-0.4 0.3-0.6 0.3 -0.3 0-0.5 0.1-0.7 0.1 -0.2 0-0.4 0-0.6 0.1 -0.1 0-0.3 0.2-0.3 0.5 0 0.1 0 0.2 0.1 0.3 0.1 0.1 0.2 0.2 0.3 0.2 0.5 0 0.9 0 1.2 0 0.4 0 0.7-0.1 1-0.1 0.3 0 0.7-0.1 1-0.1 0.3 0 0.8 0 1.2 0 0.9 0 1.9 0.1 2.9 0.2C168.8 32.6 169.8 32.7 170.7 32.7" fill="#0057A8"/><path d="M179.1 32.5c0.6 0.1 1.3 0.1 1.9 0 0.3 0 0.4-0.2 0.4-0.5 0-0.1 0-0.3-0.3-0.4 -0.2 0-0.3-0.1-0.6-0.1 -0.2 0-0.4-0.1-0.6-0.1 -0.2 0-0.4-0.1-0.5-0.2 -0.1-0.1-0.2-0.3-0.3-0.6 0-0.3-0.1-0.5-0.1-0.8V24.3c0-0.9 0-1.8 0-2.7 0-0.9 0-1.8 0-2.7 0-0.3 0-0.5 0-0.7 0-0.2 0.1-0.3 0.1-0.4 0.1-0.1 0.2-0.2 0.4-0.2 0.2-0.1 0.5-0.1 0.9-0.1 0.2 0 0.4 0 0.6-0.1 0.1 0 0.3-0.1 0.3-0.5 0-0.1 0-0.1-0.1-0.2 0-0.1-0.1-0.1-0.1-0.2l0 0h-1.9c-0.2 0-0.4 0-0.6 0 -0.2 0-0.4 0-0.6 0 -0.4 0-0.8 0-1.2-0.1 -0.4 0-0.9-0.1-1.3-0.1h-0.2c-0.1 0-0.3 0-0.4 0 -0.2 0-0.3 0.2-0.3 0.4 0 0.3 0.2 0.5 0.3 0.5 0.2 0.1 0.3 0.1 0.5 0.1 0.2 0 0.4 0 0.6 0.1 0.2 0 0.4 0.1 0.5 0.2 0.1 0.1 0.1 0.2 0.2 0.5 0 0.3 0.1 0.5 0.1 0.8v0.4c0 0.4 0 0.7 0 1.1 0 0.4 0 0.7 0 1.1l0 7.5v0.5c0 0.3 0 0.5-0.1 0.8 0 0.3-0.1 0.4-0.2 0.5 -0.1 0.1-0.3 0.2-0.5 0.2 -0.2 0-0.4 0.1-0.6 0.1 -0.2 0-0.4 0.1-0.5 0.1 -0.3 0.1-0.3 0.3-0.3 0.4 0 0.2 0.1 0.4 0.3 0.5 0.2 0.1 0.3 0.1 0.5 0.1h0.3c0.4 0 0.8 0 1.2-0.1C177.4 32.4 178.3 32.4 179.1 32.5" fill="#0057A8"/><path d="M189.1 26.3v-1c0-0.2 0-0.4 0-0.6 0-0.2 0-0.3 0-0.4 0 0 0 0 0 0 0.1 0 0.2 0 0.3 0.1 0.2 0.1 0.4 0.3 0.6 0.5 0.3 0.3 0.6 0.6 1 0.9 0.4 0.4 0.7 0.8 1.1 1.2 0.4 0.4 0.7 0.8 1.1 1.2 0.3 0.4 0.7 0.8 0.9 1.1l0.2 0.2c0.2 0.2 0.3 0.4 0.5 0.5 0 0 0.1 0.1 0.2 0.2 0.1 0.1 0.2 0.2 0.2 0.3 0.1 0.1 0.2 0.2 0.2 0.3 0.1 0.1 0.1 0.1 0.1 0.2 0.1 0.1 0.1 0.1 0.1 0.1 -0.1 0-0.2 0.1-0.3 0.1 -0.1 0-0.2 0-0.4 0 -0.2 0-0.4 0-0.6 0 -0.2 0-0.4 0.1-0.6 0.2 -0.2 0.1-0.3 0.3-0.3 0.4 0 0.2 0.1 0.4 0.2 0.4 0.1 0 0.2 0.1 0.4 0.1 0.5 0 1.1 0 1.7-0.1 1-0.1 2-0.1 3 0 0.5 0 0.9 0.1 1.4 0.1 0.1 0 0.2 0 0.4 0 0.3 0 0.3-0.2 0.3-0.3 0-0.4-0.2-0.5-0.3-0.6 -0.2-0.1-0.4-0.1-0.5-0.1 -0.3-0.1-0.7-0.2-1-0.4 -0.3-0.2-0.6-0.4-0.9-0.7 -0.3-0.3-0.5-0.6-0.8-0.9 -0.3-0.3-0.5-0.6-0.8-0.9 -0.1-0.1-0.3-0.3-0.6-0.6l-1-1.1c-0.4-0.4-0.8-0.8-1.2-1.3 -0.4-0.5-0.8-0.9-1.2-1.3 -0.3-0.4-0.6-0.7-0.9-1 -0.2-0.3-0.3-0.4-0.4-0.4 0-0.1 0.1-0.2 0.4-0.4 0.3-0.3 0.6-0.6 1-0.9 0.4-0.4 0.8-0.7 1.3-1.1 0.5-0.4 0.9-0.8 1.3-1.1 0.4-0.3 0.8-0.7 1.1-0.9 0.4-0.3 0.6-0.4 0.6-0.5 0.2-0.1 0.4-0.2 0.6-0.2 0.3 0 0.5-0.1 0.7-0.1 0.2 0 0.4-0.1 0.6-0.1 0.2-0.1 0.3-0.2 0.3-0.4 0-0.2-0.1-0.3-0.2-0.4 -0.1-0.1-0.2-0.1-0.4-0.1 -0.4 0-0.7 0-1.1 0 -0.7 0-1.5 0-2.2 0 -0.6 0-1.2 0-1.8 0 -0.3 0-0.5 0.1-0.5 0.4l0 0.2c0 0.1 0.1 0.3 0.4 0.4 0.2 0 0.4 0 0.7 0.1 0.2 0 0.4 0 0.6 0.1 0.2 0 0.2 0.1 0.2 0.1 0 0 0 0.1-0.3 0.4 -0.2 0.2-0.4 0.5-0.7 0.8 -0.3 0.3-0.6 0.6-1 1 -0.3 0.3-0.6 0.5-0.8 0.8l-0.2 0.2c-0.3 0.3-0.6 0.6-0.9 0.8 -0.3 0.2-0.5 0.4-0.6 0.5l-0.3 0.3c-0.1 0.1-0.2 0.2-0.4 0.3 -0.1 0.1-0.3 0.2-0.4 0.3 -0.1 0.1-0.2 0.1-0.3 0.1 0-0.1 0-0.2 0-0.2V21.9c0-0.3 0-0.7 0-1 0-0.3 0-0.7 0-1V18.8c0-0.6 0.1-0.8 0.2-0.9 0.2-0.2 0.3-0.2 0.5-0.3 0.2 0 0.4 0 0.7 0 0.3 0 0.5 0 0.6-0.2 0-0.1 0.1-0.1 0.1-0.2 0-0.1 0-0.1 0.1-0.2l0-0.1c0-0.1 0-0.2-0.3-0.3 -0.1 0-0.3-0.1-0.4-0.1h-0.2c-0.3 0-0.7 0-1 0.1 -0.3 0-0.6 0.1-1 0.1h-0.7c-0.4 0-0.7 0-1.1-0.1 -0.4 0-0.7-0.1-1.1-0.1h-0.2c-0.1 0-0.3 0-0.4 0.1 -0.3 0.1-0.3 0.3-0.3 0.4 0 0.2 0.1 0.4 0.2 0.5 0.1 0.1 0.3 0.1 0.5 0.2 0.2 0 0.3 0 0.5 0 0.2 0 0.3 0 0.5 0 0.2 0 0.4 0.1 0.4 0.3 0.1 0.2 0.1 0.4 0.1 0.7v2.6c0 1.5 0 2.9 0 4.3 0 1.4 0 2.9 0 4.3 0 0.1 0 0.3 0 0.4 0 0.2 0 0.3-0.1 0.5 0 0.1-0.1 0.3-0.2 0.4 -0.1 0.1-0.1 0.2-0.3 0.2 -0.1 0-0.2 0.1-0.4 0.1 -0.2 0-0.4 0-0.6 0s-0.4 0.1-0.5 0.1c-0.2 0.1-0.3 0.3-0.3 0.5 0 0.2 0.1 0.4 0.4 0.4 0.2 0 0.3 0.1 0.5 0.1 0.6 0 1.2 0 1.8-0.1 0.5 0 1.1-0.1 1.7-0.1 0.3 0 0.6 0 0.9 0.1 0.3 0 0.6 0.1 0.9 0.1h0.3c0.2 0 0.3 0 0.5-0.1 0.1-0.1 0.3-0.2 0.3-0.4 0-0.2-0.1-0.3-0.2-0.4 -0.1 0-0.2-0.1-0.4-0.1 -0.1 0-0.3 0-0.4 0l0 0c-0.1 0-0.1 0-0.1 0l0 0 -0.1 0c-0.3 0-0.5 0-0.6-0.1 -0.2-0.1-0.3-0.3-0.3-0.5 -0.1-0.2-0.1-0.4-0.1-0.7 0-0.3 0-0.5 0-0.7 0-0.5 0-1.1 0-1.6C189.1 27.4 189.1 26.9 189.1 26.3" fill="#0057A8"/><path d="M217.9 27.7c0.4-1 0.7-2.2 0.7-3.3 0-1.2-0.2-2.3-0.7-3.3 -0.5-1-1.1-1.9-1.8-2.6 -0.8-0.7-1.7-1.3-2.7-1.7 -1-0.4-2.1-0.6-3.3-0.6 -1.2 0-2.3 0.2-3.3 0.6 -1 0.4-1.9 1-2.6 1.8 -0.7 0.8-1.3 1.7-1.7 2.7 -0.4 1-0.6 2.2-0.6 3.4 0 1.2 0.2 2.3 0.6 3.3 0.4 1 1 1.9 1.7 2.6 0.7 0.7 1.6 1.3 2.6 1.7 1 0.4 2.1 0.6 3.3 0.6 1.2 0 2.3-0.2 3.4-0.7 1-0.5 2-1.1 2.7-1.9C216.8 29.6 217.4 28.7 217.9 27.7M215.8 26c0 0.9-0.2 1.7-0.4 2.5 -0.3 0.8-0.7 1.5-1.3 2.1 -0.6 0.6-1.4 1-2.4 1.1 -0.4 0.1-0.8 0.1-1.2 0.1 -0.6 0-1.1-0.1-1.6-0.3 -0.8-0.3-1.5-0.8-2-1.4 -0.6-0.6-1-1.4-1.4-2.2 -0.3-0.8-0.6-1.7-0.7-2.5 -0.2-0.8-0.2-1.7-0.2-2.5 0-0.9 0.1-1.7 0.4-2.4 0.3-0.8 0.7-1.4 1.3-2 0.6-0.6 1.4-0.9 2.5-1.1 0.4-0.1 0.8-0.1 1.1-0.1 0.5 0 1 0.1 1.5 0.2 0.8 0.3 1.5 0.7 2 1.3 0.6 0.6 1.1 1.3 1.4 2.1 0.4 0.8 0.7 1.7 0.8 2.6C215.7 24.2 215.8 25.1 215.8 26" fill="#0057A8"/><path d="M235.4 18.4c-0.8-0.7-1.7-1.3-2.7-1.7 -1-0.4-2.1-0.6-3.3-0.6 -1.2 0-2.3 0.2-3.3 0.6 -1 0.4-1.9 1-2.6 1.8 -0.7 0.8-1.3 1.7-1.7 2.7 -0.4 1-0.6 2.2-0.6 3.4 0 1.2 0.2 2.3 0.6 3.3 0.4 1 1 1.9 1.7 2.6 0.7 0.7 1.6 1.3 2.6 1.7 1 0.4 2.1 0.6 3.3 0.6 1.2 0 2.3-0.2 3.4-0.7 1-0.5 2-1.1 2.7-1.9 0.8-0.8 1.4-1.7 1.8-2.7 0.4-1 0.7-2.2 0.7-3.3 0-1.2-0.2-2.3-0.7-3.3C236.8 20 236.2 19.1 235.4 18.4M235.2 26c0 0.9-0.2 1.7-0.4 2.5 -0.3 0.8-0.7 1.5-1.3 2.1 -0.6 0.6-1.4 1-2.5 1.1 -0.4 0.1-0.8 0.1-1.2 0.1l0 0c-0.6 0-1.1-0.1-1.6-0.3 -0.8-0.3-1.5-0.8-2-1.4 -0.6-0.6-1-1.4-1.4-2.2 -0.3-0.8-0.6-1.7-0.7-2.5 -0.2-0.8-0.2-1.7-0.2-2.5 0-0.9 0.2-1.7 0.4-2.4 0.3-0.7 0.7-1.4 1.3-2 0.6-0.6 1.4-0.9 2.5-1.1 0.4-0.1 0.8-0.1 1.1-0.1 0.5 0 1 0.1 1.5 0.2 0.8 0.3 1.5 0.7 2.1 1.3 0.6 0.6 1.1 1.3 1.5 2.1 0.4 0.8 0.7 1.7 0.8 2.6C235.2 24.2 235.2 25.1 235.2 26" fill="#0057A8"/><path d="M250.4 32.7c0.2 0 0.3-0.3 0.4-0.5 0.1-0.3 0.2-0.6 0.3-1.1 0.1-0.4 0.3-1 0.5-1.5 0.2-0.6 0.5-1.1 0.8-1.7l0-0.1 0-0.1c-0.1-0.2-0.2-0.3-0.4-0.3 -0.2 0-0.4 0-0.6 0.1 0 0-0.1 0.1-0.3 0.5 -0.2 0.3-0.3 0.6-0.6 0.9 -0.2 0.3-0.4 0.7-0.7 1 -0.2 0.3-0.5 0.5-0.7 0.6 -0.1 0.1-0.3 0.2-0.7 0.3 -0.3 0.1-0.7 0.2-1.2 0.3 -0.4 0.1-0.9 0.1-1.3 0 -0.4-0.1-0.8-0.2-1.2-0.5 -0.1-0.1-0.1-0.2-0.2-0.4 -0.1-0.2-0.1-0.5-0.1-0.7 0-0.3 0-0.6-0.1-0.9 0-0.3 0-0.6 0-0.8v-0.8c0-1.3 0-2.6 0-3.8 0-1.3 0-2.6 0-3.8 0-0.1 0-0.2 0-0.4 0-0.2 0-0.3 0-0.5 0-0.2 0.1-0.3 0.1-0.4 0-0.1 0.1-0.2 0.2-0.3 0.1-0.1 0.3-0.2 0.5-0.2l0.7-0.1c0.2 0 0.4-0.1 0.6-0.1 0.2-0.1 0.3-0.2 0.3-0.5 0-0.2-0.1-0.3-0.2-0.4l0 0h0c-0.6 0-1.2 0-1.6 0 -0.9 0.1-2 0.1-3 0 -0.5-0.1-1-0.1-1.5-0.1 -0.2 0-0.3 0-0.5 0 -0.1 0-0.4 0.1-0.4 0.5 0 0.3 0.2 0.4 0.4 0.5 0.2 0 0.5 0.1 0.8 0.1 0.3 0 0.5 0.1 0.8 0.2 0.2 0.1 0.3 0.3 0.4 0.5 0.1 0.3 0.1 0.6 0.1 0.9v6.3c0 0.4 0 0.9 0 1.5 0 0.6 0 1.1 0 1.7 0 0.5 0 1-0.1 1.5 -0.1 0.4-0.2 0.7-0.3 0.9 -0.2 0.2-0.4 0.3-0.6 0.3 -0.3 0-0.5 0.1-0.7 0.1 -0.2 0-0.4 0-0.6 0.1 -0.1 0-0.3 0.2-0.3 0.5 0 0.1 0 0.2 0.1 0.3 0.1 0.1 0.2 0.2 0.3 0.2 0.5 0 0.9 0 1.2 0 0.4 0 0.7-0.1 1-0.1 0.3 0 0.7-0.1 1-0.1 0.3 0 0.8 0 1.2 0 0.9 0 1.9 0.1 2.9 0.2C248.4 32.6 249.4 32.7 250.4 32.7" fill="#0057A8"/><path d="M13.2 43.9c0-0.2 0-0.5 0-0.8 0-0.1 0-0.1 0-0.2 0 0 0-0.1 0-0.1 0 0 0 0 0.1 0 0 0 0.1 0 0.2 0 0.1 0 0.1 0 0.2 0 0.1 0 0.2-0.1 0.2-0.3 0-0.1 0-0.1-0.1-0.2l0 0h-0.6c-0.1 0-0.1 0-0.2 0 -0.2 0-0.4 0-0.5 0 -0.1 0-0.2 0-0.4 0h-0.1c0 0-0.1 0-0.1 0 -0.1 0-0.2 0.1-0.2 0.2 0 0.2 0.1 0.3 0.2 0.3 0.1 0 0.1 0 0.2 0 0.1 0 0.1 0 0.2 0 0 0 0.1 0 0.1 0 0 0 0 0 0 0.1 0 0.1 0 0.2 0 0.2v0.1c0 0.1 0 0.2 0 0.3 0 0.1 0 0.2 0 0.3l0 0.6c0 0.1 0 0.2 0 0.2 0 0.1 0 0.1 0 0.1 0 0-0.1 0-0.1 0 -0.1 0-0.1 0-0.2 0 -0.1 0-0.1 0-0.2 0 -0.1 0-0.2 0.1-0.2 0.2 0 0.1 0.1 0.2 0.2 0.3 0.1 0 0.1 0 0.2 0h0.1c0.1 0 0.1 0 0.2 0 0.1 0 0.1 0 0.1 0 0 0 0.1 0 0.1 0 0.1 0 0.3 0 0.5 0 0.2 0 0.4 0 0.6 0 0.1 0 0.2-0.1 0.2-0.3 0-0.1-0.1-0.2-0.2-0.2 -0.1 0-0.1 0-0.2 0 -0.1 0-0.1 0-0.2 0 0 0-0.1 0-0.1 0 0 0 0 0 0-0.1 0-0.1 0-0.1 0-0.2v-0.1C13.2 44.4 13.2 44.1 13.2 43.9" fill="#0057A8"/><path d="M16.5 45c-0.1 0.1-0.2 0.1-0.3 0.1 -0.2 0-0.3 0-0.4-0.1 -0.1-0.1-0.2-0.2-0.2-0.3 -0.1-0.1-0.1-0.3-0.1-0.4 0-0.2 0-0.3 0-0.5 0-0.1 0-0.1 0-0.2l0-0.2c0 0 0.1-0.1 0.1-0.1 0.1-0.1 0.1-0.1 0.2-0.2 0.1 0 0.1-0.1 0.2-0.1 0.2-0.1 0.4 0 0.5 0 0.1 0.1 0.2 0.1 0.2 0.2 0.1 0.1 0.1 0.2 0.1 0.3 0 0.1 0 0.3 0 0.4 0 0.1 0 0.3 0 0.4 0 0.1-0.1 0.3-0.1 0.4C16.7 44.8 16.6 44.9 16.5 45M17.4 42.8c-0.1-0.1-0.3-0.2-0.4-0.3 -0.3-0.1-0.7-0.2-1-0.1 -0.1 0-0.2 0.1-0.3 0.1 0 0-0.1 0-0.1 0 0.1-0.2 0.2-0.4 0.3-0.6 0.2-0.3 0.4-0.6 0.7-0.8 0.1-0.1 0.1-0.1 0.2-0.2 0.1 0 0.1-0.1 0.2-0.1 0 0 0 0 0.1 0 0.1 0 0.1 0 0.1-0.1 0.1 0 0.1-0.1 0.1-0.1 0.1-0.1 0.1-0.1 0.1-0.2 0-0.1 0-0.1-0.1-0.2 0 0-0.1-0.1-0.1-0.1l0 0 -0.1 0c-0.1 0-0.1 0-0.2 0.1 -0.1 0-0.1 0.1-0.2 0.1 -0.3 0.2-0.6 0.3-0.9 0.6 -0.3 0.2-0.5 0.5-0.7 0.8 -0.2 0.3-0.4 0.6-0.5 0.9 -0.1 0.3-0.2 0.7-0.2 1.1 0 0.2 0 0.4 0.1 0.6 0 0.2 0.1 0.4 0.2 0.5 0.1 0.2 0.2 0.3 0.3 0.4 0.1 0.1 0.3 0.2 0.5 0.3 0.2 0.1 0.5 0.1 0.7 0.1 0.2 0 0.5-0.1 0.7-0.1 0.2-0.1 0.4-0.2 0.5-0.4 0.1-0.2 0.2-0.4 0.3-0.6s0.1-0.4 0.1-0.7c0-0.2 0-0.4-0.1-0.6C17.7 43.1 17.6 42.9 17.4 42.8" fill="#0057A8"/><path d="M20.6 44.3c-0.1-0.1-0.3-0.2-0.5-0.3 -0.1 0-0.1 0-0.2 0 0.1-0.1 0.1-0.2 0.2-0.3 0.1-0.1 0.2-0.2 0.2-0.4 0.1-0.1 0.1-0.3 0.1-0.4 0-0.2 0-0.3-0.1-0.4 -0.1-0.1-0.1-0.2-0.2-0.3 -0.1-0.1-0.2-0.1-0.3-0.2 -0.2-0.1-0.5-0.1-0.7 0 -0.1 0-0.2 0.1-0.3 0.2 -0.1 0.1-0.2 0.2-0.3 0.2 -0.1 0.1-0.1 0.2-0.1 0.3 0 0.1 0 0.1 0.1 0.2 0.1 0 0.1 0.1 0.1 0.1 0.1 0 0.1 0 0.2-0.1 0.1-0.1 0.2-0.2 0.3-0.3 0.1-0.1 0.3-0.1 0.5 0 0.1 0.1 0.1 0.2 0.1 0.4 0 0.1 0 0.2-0.1 0.3 -0.1 0.1-0.1 0.2-0.2 0.3 -0.1 0.1-0.2 0.2-0.3 0.3 -0.1 0.1-0.2 0.1-0.3 0.2l-0.1 0.1c-0.2 0.1-0.2 0.2-0.2 0.3 0 0.2 0.1 0.3 0.3 0.3 0.1 0 0.1 0 0.2-0.1 0 0 0.1-0.1 0.1-0.1 0.1 0 0.1 0 0.2 0h0c0.1 0 0.2 0 0.3 0 0.1 0 0.2 0.1 0.2 0.1 0.1 0 0.1 0.1 0.2 0.2 0.1 0.1 0.1 0.2 0.1 0.3 0 0.1 0 0.2 0 0.3 0 0.2 0 0.3-0.1 0.5 -0.1 0.1-0.2 0.3-0.3 0.4 -0.1 0.1-0.3 0.2-0.5 0.3 -0.2 0.1-0.4 0.2-0.5 0.2 -0.1 0-0.1 0-0.1 0.1 0 0 0 0.1 0 0.1 0 0.1 0 0.1 0 0.2 0 0 0.1 0.1 0.2 0.1h0l0 0c0.3 0 0.5-0.1 0.8-0.2 0.3-0.1 0.5-0.3 0.7-0.4 0.2-0.2 0.4-0.4 0.5-0.6 0.1-0.3 0.2-0.5 0.2-0.8 0-0.2 0-0.4-0.1-0.5C20.8 44.6 20.7 44.5 20.6 44.3" fill="#0057A8"/><path d="M24.4 44.3c0-0.1-0.1-0.1-0.2-0.2 -0.1 0-0.2 0-0.3 0.1l-0.2 0.3c0 0.1-0.1 0.1-0.1 0.2 -0.1 0.1-0.1 0.1-0.1 0.2 0 0 0 0-0.1 0.1 -0.1 0-0.2 0-0.4 0 -0.1 0-0.2 0-0.4 0 0 0 0.1-0.1 0.1-0.1 0.1-0.1 0.2-0.2 0.3-0.3 0.1-0.1 0.2-0.2 0.3-0.4 0.1-0.1 0.2-0.2 0.2-0.4 0.1-0.1 0.1-0.2 0.1-0.3 0.1-0.4 0.1-0.7-0.1-0.9 -0.2-0.2-0.5-0.4-0.8-0.4 -0.1 0-0.1 0-0.2 0 -0.1 0-0.2 0-0.2 0 -0.1 0-0.2 0.1-0.3 0.1 -0.1 0.1-0.2 0.1-0.3 0.2 0 0 0 0-0.1 0.1l-0.1 0.1c0 0-0.1 0.1-0.1 0.1 0 0.1 0 0.1 0 0.1 0 0.1 0 0.2 0.1 0.2 0.1 0.1 0.2 0.1 0.2 0 0.1 0 0.1-0.1 0.1-0.2 0 0 0-0.1 0.1-0.1 0 0 0.1-0.1 0.1-0.1 0 0 0.1 0 0.3 0 0.3 0 0.3 0.1 0.3 0.1 0.1 0.1 0.1 0.2 0 0.4 0 0.1-0.1 0.2-0.2 0.4 -0.1 0.1-0.2 0.3-0.3 0.5 -0.1 0.2-0.2 0.3-0.3 0.5 -0.1 0.2-0.2 0.3-0.4 0.4 -0.1 0.1-0.1 0.1-0.1 0.2 0 0 0 0.2 0.1 0.2 0 0 0.1 0.1 0.2 0.1l0 0c0.1 0 0.1-0.1 0.2-0.1 0.1 0 0.2 0 0.3 0 0.1 0 0.3 0 0.4 0 0.3 0 0.5 0 0.7 0.1 0.2 0 0.3 0.1 0.5 0.1h0c0.1 0 0.2-0.1 0.2-0.2 0 0 0-0.1 0-0.2 0-0.1 0-0.2 0.1-0.3 0-0.1 0.1-0.3 0.2-0.4l0-0.1L24.4 44.3z" fill="#0057A8"/><polygon points="5.1 13 18.2 6.7 31.3 13 " fill="#0057A8"/><rect x="4.5" y="14.2" width="27.5" height="1.2" fill="#0057A8"/><rect x="4.5" y="33.6" width="7.5" height="3.7" fill="#0057A8"/><rect x="24.5" y="33.6" width="7.5" height="3.7" fill="#0057A8"/><rect x="14.5" y="33.6" width="2.5" height="3.7" fill="#0057A8"/><rect x="19.5" y="33.6" width="2.5" height="3.7" fill="#0057A8"/><polygon points="6.7 16.7 7 32.3 4.5 32.3 4.8 16.7 " fill="#0057A8"/><polygon points="11.7 16.7 12 32.3 9.5 32.3 9.8 16.7 " fill="#0057A8"/><polygon points="16.7 16.7 17 32.3 14.5 32.3 14.8 16.7 " fill="#0057A8"/><polygon points="21.7 16.7 22 32.3 19.5 32.3 19.8 16.7 " fill="#0057A8"/><polygon points="26.7 16.7 27 32.3 24.5 32.3 24.8 16.7 " fill="#0057A8"/><polygon points="31.7 16.7 32 32.3 29.5 32.3 29.8 16.7 " fill="#0057A8"/><polygon points="18.2 3.6 4.5 10.2 4.5 11.7 18.2 5.2 32 11.7 32 10.2 " fill="#0057A8"/></g><g><g><path d="M51.6 72.5c-0.1-0.1-0.1-0.2-0.1-0.3V61.1c0-0.1 0-0.2 0.1-0.3 0.1-0.1 0.2-0.1 0.3-0.1h6.6c0.1 0 0.2 0 0.3 0.1 0.1 0.1 0.1 0.2 0.1 0.3v0.3c0 0.1 0 0.2-0.1 0.3 -0.1 0.1-0.2 0.1-0.3 0.1h-5.9v4.6h5.5c0.1 0 0.2 0 0.3 0.1 0.1 0.1 0.1 0.2 0.1 0.3v0.3c0 0.1 0 0.2-0.1 0.3 -0.1 0.1-0.2 0.1-0.3 0.1h-5.5v4.9c0 0.1 0 0.2-0.1 0.3 -0.1 0.1-0.2 0.1-0.3 0.1H51.8C51.7 72.6 51.6 72.6 51.6 72.5z" fill="#0057A8"/><path d="M63.8 71.6c-0.8-0.8-1.1-2-1.1-3.6v-6.9c0-0.1 0-0.2 0.1-0.3 0.1-0.1 0.2-0.1 0.3-0.1h0.3c0.1 0 0.2 0 0.3 0.1 0.1 0.1 0.1 0.2 0.1 0.3v7c0 1.2 0.3 2.2 0.9 2.8 0.6 0.6 1.4 0.9 2.4 0.9 1 0 1.9-0.3 2.4-0.9 0.6-0.6 0.9-1.5 0.9-2.8v-7c0-0.1 0-0.2 0.1-0.3 0.1-0.1 0.2-0.1 0.3-0.1h0.3c0.1 0 0.2 0 0.3 0.1 0.1 0.1 0.1 0.2 0.1 0.3v6.9c0 1.6-0.4 2.8-1.1 3.6s-1.8 1.2-3.2 1.2S64.6 72.4 63.8 71.6z" fill="#0057A8"/><path d="M79.1 72.5c-0.1-0.1-0.1-0.2-0.1-0.3V61.7h-3.4c-0.1 0-0.2 0-0.3-0.1 -0.1-0.1-0.1-0.2-0.1-0.3v-0.3c0-0.1 0-0.2 0.1-0.3 0.1-0.1 0.2-0.1 0.3-0.1h7.8c0.1 0 0.2 0 0.3 0.1 0.1 0.1 0.1 0.2 0.1 0.3v0.3c0 0.1 0 0.2-0.1 0.3 -0.1 0.1-0.2 0.1-0.3 0.1h-3.3v10.5c0 0.1 0 0.2-0.1 0.3 -0.1 0.1-0.2 0.1-0.3 0.1h-0.3C79.2 72.6 79.1 72.6 79.1 72.5z" fill="#0057A8"/><path d="M88.7 71.6c-0.8-0.8-1.1-2-1.1-3.6v-6.9c0-0.1 0-0.2 0.1-0.3 0.1-0.1 0.2-0.1 0.3-0.1h0.3c0.1 0 0.2 0 0.3 0.1 0.1 0.1 0.1 0.2 0.1 0.3v7c0 1.2 0.3 2.2 0.9 2.8 0.6 0.6 1.4 0.9 2.4 0.9 1 0 1.9-0.3 2.4-0.9 0.6-0.6 0.9-1.5 0.9-2.8v-7c0-0.1 0-0.2 0.1-0.3 0.1-0.1 0.2-0.1 0.3-0.1h0.3c0.1 0 0.2 0 0.3 0.1 0.1 0.1 0.1 0.2 0.1 0.3v6.9c0 1.6-0.4 2.8-1.1 3.6s-1.8 1.2-3.2 1.2S89.4 72.4 88.7 71.6z" fill="#0057A8"/><path d="M101 72.5c-0.1-0.1-0.1-0.2-0.1-0.3V61.1c0-0.1 0-0.2 0.1-0.3 0.1-0.1 0.2-0.1 0.3-0.1h0.3c0.1 0 0.2 0 0.3 0.1 0.1 0.1 0.1 0.2 0.1 0.3v10.5h5.9c0.1 0 0.2 0 0.3 0.1 0.1 0.1 0.1 0.2 0.1 0.3v0.3c0 0.1 0 0.2-0.1 0.3 -0.1 0.1-0.2 0.1-0.3 0.1h-6.6C101.1 72.6 101 72.6 101 72.5z" fill="#0057A8"/><path d="M111.5 72.5c-0.1-0.1-0.1-0.1-0.1-0.2l0-0.2 4.3-11c0.1-0.2 0.3-0.3 0.5-0.3h0.6c0.2 0 0.4 0.1 0.5 0.3l4.3 11 0 0.2c0 0.1 0 0.2-0.1 0.2s-0.1 0.1-0.2 0.1h-0.3c-0.1 0-0.2 0-0.2-0.1 -0.1-0.1-0.1-0.1-0.1-0.2l-1.1-2.7h-6l-1.1 2.7c0 0.1-0.1 0.1-0.1 0.2 -0.1 0.1-0.1 0.1-0.2 0.1h-0.3C111.6 72.6 111.6 72.6 111.5 72.5zM113.9 68.6h5.2l-2.6-6.7L113.9 68.6z" fill="#0057A8"/><path d="M125.5 72.5c-0.1-0.1-0.1-0.2-0.1-0.3V61.1c0-0.1 0-0.2 0.1-0.3 0.1-0.1 0.2-0.1 0.3-0.1h4.4c1.1 0 2 0.3 2.6 0.9 0.6 0.6 0.9 1.3 0.9 2.2 0 0.7-0.1 1.2-0.4 1.7 -0.3 0.4-0.6 0.7-1.1 0.9 0.5 0.2 0.9 0.6 1.2 1.1 0.3 0.5 0.5 1.1 0.5 1.8 0 0.6-0.1 1.1-0.4 1.7s-0.7 0.9-1.2 1.2c-0.5 0.3-1.2 0.5-1.9 0.5h-4.6C125.7 72.6 125.6 72.6 125.5 72.5zM130 65.9c0.8 0 1.5-0.2 1.9-0.6s0.7-0.9 0.7-1.6c0-0.7-0.2-1.2-0.7-1.5s-1.1-0.5-1.9-0.5h-3.5v4.1H130zM130.2 71.6c0.8 0 1.5-0.2 1.9-0.7 0.5-0.4 0.7-1 0.7-1.7 0-0.7-0.2-1.3-0.7-1.7 -0.5-0.4-1.1-0.6-1.9-0.6h-3.7v4.7H130.2z" fill="#0057A8"/></g></g><line x1="49.2" y1="45.6" x2="326.7" y2="45.6" style="fill:none;stroke-width:0.5;stroke:#0057A8"/></g></svg>
