<?xml version="1.0" encoding="utf-8"?>
<!-- Generator: Adobe Illustrator 14.0.0, SVG Export Plug-In . SVG Version: 6.00 Build 43363)  -->
<!DOCTYPE svg PUBLIC "-//W3C//DTD SVG 1.1//EN" "http://www.w3.org/Graphics/SVG/1.1/DTD/svg11.dtd">
<svg version="1.1" id="Layer_1" xmlns="http://www.w3.org/2000/svg" xmlns:xlink="http://www.w3.org/1999/xlink" x="0px" y="0px"
	 width="369px" height="104px" viewBox="0 0 369 104" enable-background="new 0 0 369 104" xml:space="preserve">
<g>
	<g>
		<path fill="#0057A8" d="M82.66,30.53l-0.05-0.01c-0.38,0-0.78,0.01-1.17,0.03c-0.75,0.04-1.52,0.05-2.27-0.01
			c-0.38-0.03-0.77-0.04-1.14-0.04c-0.13,0-0.25,0.02-0.36,0.05c-0.09,0.03-0.25,0.11-0.25,0.38c0,0.31,0.15,0.46,0.27,0.53
			c0.15,0.09,0.33,0.15,0.54,0.19c0.2,0.04,0.39,0.07,0.6,0.09c0.18,0.03,0.32,0.09,0.43,0.18c0.1,0.09,0.17,0.28,0.21,0.56
			c0.04,0.3,0.06,0.64,0.06,1.02c0,0.39-0.01,0.79-0.02,1.2c-0.01,0.42-0.02,0.79-0.02,1.13v4.6c0,0.42-0.04,0.83-0.13,1.22
			c-0.13,0.71-0.3,1.32-0.53,1.81c-0.22,0.47-0.51,0.87-0.86,1.17c-0.35,0.3-0.78,0.52-1.28,0.65c-0.51,0.13-1.13,0.2-1.85,0.2
			c-0.6,0-1.15-0.06-1.64-0.19c-0.48-0.13-0.9-0.35-1.24-0.66c-0.35-0.32-0.63-0.75-0.85-1.3c-0.22-0.56-0.36-1.28-0.41-2.16
			c-0.03-0.44-0.05-0.88-0.05-1.33c-0.01-0.44-0.01-0.88-0.01-1.33v-3.96c0-0.21,0-0.44,0.01-0.69c0.01-0.24,0.02-0.47,0.04-0.7
			c0.02-0.22,0.05-0.43,0.08-0.61c0.03-0.18,0.06-0.31,0.1-0.4c0.08-0.19,0.22-0.32,0.42-0.38c0.24-0.07,0.47-0.13,0.7-0.17
			c0.25-0.04,0.47-0.09,0.67-0.15c0.25-0.07,0.38-0.26,0.38-0.51c0-0.23-0.13-0.37-0.37-0.41c-0.18-0.03-0.33-0.05-0.45-0.05
			c-0.5,0-1,0.02-1.48,0.07c-0.9,0.08-1.89,0.09-2.81,0c-0.46-0.04-0.92-0.07-1.38-0.07c-0.36,0-0.56,0.2-0.56,0.54
			c0,0.14,0.06,0.26,0.17,0.34c0.09,0.07,0.21,0.12,0.33,0.14c0.12,0.02,0.23,0.04,0.34,0.05c0.11,0,0.2,0.01,0.28,0.01h0.24
			c0.25,0,0.44,0.07,0.56,0.2c0.14,0.15,0.23,0.31,0.29,0.52c0.06,0.21,0.1,0.44,0.1,0.69c0.01,0.26,0.01,0.48,0.01,0.68
			c0,1.21-0.01,2.43-0.04,3.61c-0.03,1.22-0.04,2.44-0.04,3.62v0.8c0,0.13,0,0.26,0.01,0.39c0.01,0.13,0.02,0.26,0.03,0.39
			c0.09,0.85,0.3,1.56,0.64,2.12c0.34,0.56,0.78,1.01,1.31,1.35c0.53,0.34,1.13,0.58,1.81,0.72c0.66,0.14,1.38,0.21,2.11,0.21
			c0.62,0,1.26-0.05,1.91-0.14c0.65-0.1,1.29-0.26,1.9-0.49c0.71-0.28,1.26-0.69,1.65-1.21c0.38-0.51,0.67-1.09,0.86-1.73
			c0.19-0.63,0.3-1.3,0.34-2c0.04-0.69,0.05-1.36,0.05-1.99c0-0.39,0-0.78-0.01-1.16c-0.01-0.39-0.01-0.77-0.01-1.16
			c0-0.43,0-0.93-0.01-1.51c-0.01-0.57-0.01-1.12,0-1.65c0.01-0.53,0.03-0.99,0.08-1.37c0.06-0.51,0.14-0.58,0.15-0.58
			c0.03-0.02,0.12-0.06,0.37-0.09c0.21-0.03,0.44-0.07,0.67-0.12c0.24-0.05,0.45-0.13,0.63-0.22c0.27-0.14,0.33-0.34,0.33-0.48
			C83.04,30.84,82.98,30.65,82.66,30.53"/>
		<path fill="#0057A8" d="M103.63,30.52c-0.36,0-0.73,0.01-1.14,0.03c-0.82,0.05-1.7,0.04-2.49-0.01c-0.46-0.03-0.93-0.04-1.38-0.04
			c-0.14,0-0.26,0.03-0.38,0.09c-0.1,0.05-0.22,0.16-0.22,0.41c0,0.3,0.17,0.48,0.47,0.52c0.24,0.03,0.51,0.05,0.81,0.05
			c0.28,0.01,0.55,0.05,0.8,0.12c0.22,0.07,0.35,0.23,0.41,0.5c0.04,0.17,0.06,0.35,0.07,0.54c0.01,0.18,0.01,0.37,0.01,0.57
			c0,1.12,0,2.24,0.01,3.36c0.01,1.11,0,2.24-0.01,3.35v2.61c0.01,0.22-0.05,0.3-0.1,0.32c-1.17-1.39-2.2-2.61-3.08-3.65
			c-0.89-1.05-1.71-2-2.43-2.84s-1.38-1.6-1.98-2.3c-0.59-0.69-1.18-1.39-1.76-2.09c-0.27-0.25-0.47-0.47-0.61-0.65
			c-0.15-0.2-0.28-0.35-0.41-0.48c-0.13-0.14-0.27-0.25-0.43-0.32c-0.15-0.07-0.37-0.11-0.65-0.11c-0.25,0-0.48,0.01-0.71,0.02
			c-0.21,0.01-0.43,0.02-0.69,0.02c-0.33,0-0.63-0.01-0.92-0.02c-0.3-0.01-0.61-0.02-0.93-0.02c-0.12,0-0.26,0.04-0.43,0.12
			c-0.25,0.12-0.3,0.29-0.3,0.42c0,0.16,0.09,0.3,0.25,0.38c0.13,0.06,0.28,0.11,0.44,0.14c0.16,0.03,0.33,0.05,0.49,0.06
			c0.15,0.01,0.27,0.02,0.35,0.03c0.31,0.05,0.56,0.13,0.73,0.24c0.17,0.1,0.3,0.22,0.39,0.36c0.09,0.14,0.15,0.31,0.16,0.49
			c0.02,0.2,0.03,0.42,0.03,0.64c0,1.71-0.02,3.42-0.04,5.09l-0.09,5.09c0,0.2-0.01,0.4-0.02,0.62c-0.01,0.2-0.05,0.39-0.11,0.57
			c-0.06,0.16-0.15,0.3-0.27,0.42c-0.12,0.11-0.29,0.19-0.5,0.22c-0.11,0.02-0.25,0.03-0.42,0.04c-0.19,0.01-0.35,0.02-0.5,0.04
			c-0.17,0.02-0.32,0.07-0.44,0.13c-0.15,0.08-0.23,0.22-0.23,0.39c0,0.22,0.11,0.37,0.32,0.43c0.17,0.05,0.31,0.07,0.43,0.07
			c0.48,0,0.97-0.01,1.45-0.04c0.89-0.05,1.76-0.06,2.65,0c0.42,0.03,0.85,0.04,1.25,0.04c0.08,0,0.18-0.02,0.28-0.05
			c0.14-0.05,0.22-0.16,0.22-0.3c0-0.19-0.07-0.33-0.22-0.44c-0.12-0.09-0.25-0.15-0.38-0.18c-0.4-0.09-0.75-0.14-1.04-0.15
			c-0.26-0.01-0.47-0.07-0.63-0.16c-0.15-0.09-0.26-0.27-0.34-0.53c-0.08-0.29-0.12-0.76-0.12-1.41c0-1.07-0.01-2.07-0.02-2.96
			c-0.01-0.85-0.02-1.64-0.03-2.38c-0.01-0.73-0.02-1.44-0.03-2.12c-0.02-0.71-0.02-1.44-0.02-2.18c0-0.16,0.01-0.32,0.03-0.48
			c0.24,0.22,0.45,0.46,0.65,0.72c0.25,0.35,0.51,0.66,0.75,0.94c0.88,1.02,1.65,1.92,2.32,2.71l0.72,0.84
			c0.82,0.96,1.51,1.76,2.05,2.39c0.54,0.63,0.97,1.12,1.27,1.47c0.3,0.35,0.53,0.61,0.67,0.78c0.14,0.17,0.23,0.27,0.27,0.31
			c0.04,0.05,0.07,0.08,0.07,0.08c0.43,0.54,0.83,1.02,1.22,1.49c0.41,0.49,0.82,0.98,1.23,1.46c0.04,0.06,0.1,0.13,0.16,0.21
			c0.07,0.08,0.13,0.16,0.2,0.23c0.08,0.08,0.15,0.15,0.23,0.2c0.08,0.05,0.16,0.08,0.24,0.08c0.02,0,0.05,0,0.07,0
			c0.24-0.04,0.39-0.21,0.42-0.47c0.02-0.21,0.03-0.45,0.03-0.69c0-1.42,0.01-2.65,0.01-3.7c0.01-1.04,0.01-1.98,0.01-2.82v-4.45
			c0-0.14,0-0.36,0.01-0.66c0.01-0.3,0.02-0.61,0.04-0.93c0.02-0.31,0.06-0.61,0.12-0.89c0.07-0.33,0.14-0.48,0.19-0.54
			c0.08-0.1,0.22-0.17,0.41-0.2c0.23-0.04,0.45-0.07,0.68-0.09c0.24-0.02,0.45-0.06,0.64-0.11c0.24-0.06,0.37-0.23,0.37-0.46
			C104.24,30.83,104.16,30.52,103.63,30.52"/>
		<path fill="#0057A8" d="M111.19,35.63c0.02-0.92,0.03-1.82,0.03-2.69c0-0.25,0.01-0.48,0.02-0.66c0.01-0.16,0.06-0.29,0.14-0.4
			c0.08-0.11,0.22-0.18,0.41-0.24c0.2-0.05,0.5-0.08,0.87-0.08c0.21,0,0.4-0.02,0.56-0.07c0.12-0.03,0.32-0.14,0.32-0.49
			c0-0.06-0.02-0.13-0.05-0.23c-0.04-0.09-0.07-0.15-0.12-0.19l-0.04-0.04h-1.92c-0.21,0-0.43,0.01-0.64,0.03
			c-0.22,0.02-0.42,0.03-0.61,0.03c-0.41,0-0.83-0.02-1.24-0.06c-0.41-0.04-0.84-0.06-1.27-0.06h-0.24c-0.13,0-0.26,0.01-0.4,0.03
			c-0.2,0.03-0.31,0.17-0.31,0.38c0,0.32,0.16,0.45,0.29,0.51c0.15,0.06,0.33,0.1,0.55,0.12c0.2,0.01,0.4,0.04,0.61,0.07
			c0.19,0.03,0.35,0.12,0.47,0.24c0.05,0.06,0.12,0.21,0.17,0.54c0.04,0.29,0.06,0.54,0.06,0.78v0.41c0,0.36,0,0.72-0.01,1.07
			c-0.01,0.36-0.01,0.73-0.01,1.1l-0.02,7.53v0.45c0,0.26-0.02,0.54-0.05,0.83c-0.03,0.26-0.11,0.44-0.23,0.53
			c-0.13,0.12-0.28,0.19-0.48,0.24c-0.21,0.05-0.41,0.09-0.61,0.13c-0.19,0.04-0.37,0.08-0.53,0.13c-0.26,0.1-0.3,0.29-0.3,0.39
			c0,0.23,0.1,0.39,0.29,0.46c0.15,0.05,0.3,0.08,0.46,0.08h0.3c0.44,0,0.84-0.03,1.18-0.08c0.64-0.09,1.5-0.1,2.33-0.01
			c0.62,0.06,1.23,0.09,1.87,0.03c0.27-0.03,0.43-0.21,0.43-0.49c0-0.11-0.04-0.3-0.33-0.38c-0.17-0.04-0.35-0.08-0.56-0.12
			c-0.21-0.03-0.42-0.07-0.64-0.12c-0.2-0.04-0.35-0.11-0.46-0.2c-0.15-0.14-0.24-0.34-0.27-0.59c-0.03-0.28-0.05-0.53-0.05-0.76
			v-5.48C111.15,37.41,111.16,36.5,111.19,35.63"/>
		<path fill="#0057A8" d="M132.13,30.52c-0.33,0-0.66,0.02-0.98,0.05c-0.73,0.08-1.55,0.06-2.34-0.02
			c-0.48-0.05-0.95-0.08-1.41-0.08c-0.15,0-0.28,0.05-0.39,0.15c-0.11,0.11-0.17,0.23-0.17,0.39c0,0.28,0.16,0.46,0.45,0.53
			c0.24,0.05,0.5,0.09,0.78,0.12c0.27,0.03,0.51,0.08,0.73,0.17c0.11,0.04,0.26,0.13,0.26,0.46c0,0.04-0.02,0.2-0.22,0.81
			c-0.15,0.46-0.34,1.03-0.58,1.69c-0.24,0.66-0.5,1.37-0.77,2.14c-0.28,0.77-0.55,1.49-0.82,2.18c-0.27,0.69-0.5,1.3-0.71,1.84
			c-0.22,0.58-0.36,0.92-0.44,1.1l-0.08,0.17c-0.03,0.07-0.07,0.15-0.12,0.22c-0.04,0.06-0.08,0.11-0.13,0.16
			c-0.04-0.05-0.15-0.22-0.4-0.78c-0.21-0.48-0.46-1.08-0.75-1.78c-0.29-0.7-0.59-1.46-0.91-2.29c-0.32-0.82-0.63-1.61-0.91-2.36
			c-0.29-0.74-0.54-1.4-0.75-1.99c-0.21-0.58-0.36-0.97-0.43-1.19c-0.01-0.04-0.03-0.09-0.04-0.13c-0.01-0.04-0.02-0.07-0.02-0.1
			c0-0.17,0.07-0.27,0.21-0.32c0.19-0.06,0.41-0.1,0.64-0.11c0.26-0.01,0.49-0.04,0.69-0.06c0.36-0.05,0.41-0.28,0.41-0.41
			c0-0.16-0.07-0.31-0.2-0.42c-0.13-0.1-0.27-0.16-0.43-0.16c-0.51,0-1.02,0.02-1.51,0.06c-0.82,0.07-1.67,0.1-2.5,0
			c-0.34-0.04-0.69-0.06-1.05-0.06h-0.24c-0.16,0-0.32,0.03-0.48,0.08c-0.26,0.09-0.32,0.27-0.32,0.4c0,0.24,0.13,0.42,0.35,0.48
			c0.18,0.05,0.38,0.1,0.62,0.14c0.22,0.04,0.45,0.11,0.68,0.19c0.2,0.07,0.36,0.23,0.47,0.47c0.72,1.5,1.39,3.04,1.97,4.58
			c0.59,1.54,1.18,3.08,1.79,4.64c0.33,0.82,0.67,1.65,1.01,2.49c0.34,0.85,0.68,1.68,1.01,2.49c0.03,0.08,0.08,0.16,0.14,0.26
			c0.08,0.11,0.2,0.17,0.34,0.17c0.16,0,0.27-0.04,0.33-0.13c0.04-0.06,0.08-0.14,0.11-0.23c0.52-1.28,1.04-2.59,1.55-3.89
			c0.49-1.26,1.01-2.57,1.55-3.89c0.32-0.79,0.64-1.56,0.96-2.29c0.33-0.76,0.64-1.54,0.94-2.29c0.04-0.1,0.1-0.26,0.18-0.47
			c0.08-0.2,0.17-0.41,0.26-0.63c0.09-0.21,0.18-0.42,0.26-0.6c0.08-0.18,0.14-0.3,0.17-0.37c0.11-0.16,0.25-0.27,0.41-0.32
			c0.18-0.06,0.35-0.11,0.52-0.13c0.18-0.03,0.34-0.08,0.47-0.14c0.12-0.06,0.26-0.19,0.26-0.49c0-0.11-0.03-0.22-0.1-0.31
			C132.39,30.58,132.27,30.52,132.13,30.52"/>
		<path fill="#0057A8" d="M147.92,42.59c-0.16,0-0.32,0.12-0.49,0.37c-0.14,0.21-0.29,0.46-0.43,0.73
			c-0.15,0.27-0.31,0.54-0.48,0.81c-0.16,0.25-0.34,0.44-0.52,0.56c-0.1,0.06-0.24,0.12-0.4,0.15c-0.17,0.04-0.36,0.08-0.56,0.09
			c-0.21,0.02-0.42,0.04-0.65,0.05s-0.43,0.02-0.62,0.02h-0.67c-0.13,0-0.34,0-0.64-0.01c-0.3-0.01-0.61-0.01-0.93-0.03
			c-0.31-0.01-0.61-0.04-0.9-0.08c-0.33-0.04-0.49-0.09-0.55-0.12c-0.14-0.07-0.23-0.18-0.3-0.32c-0.07-0.16-0.13-0.32-0.16-0.51
			c-0.03-0.18-0.05-0.37-0.06-0.56c-0.01-0.19-0.01-0.37-0.01-0.53v-3.39c0-0.06,0-0.16-0.01-0.31c-0.01-0.13,0-0.27,0.01-0.41
			c0.01-0.14,0.04-0.26,0.06-0.37c0.02-0.09,0.05-0.09,0.08-0.1c0.05-0.01,0.14-0.03,0.25-0.04c0.12-0.01,0.24-0.02,0.37-0.03
			l0.04,0c0.12-0.01,0.23-0.01,0.32-0.02c0.11-0.01,0.2-0.01,0.27-0.01c0.27,0,0.59,0,0.94-0.01H142c0.3,0,0.58,0.02,0.86,0.06
			c0.31,0.04,0.57,0.14,0.79,0.26c0.2,0.12,0.33,0.29,0.38,0.53l0.02,0.04c0.03,0.06,0.06,0.16,0.09,0.31
			c0.03,0.16,0.06,0.33,0.1,0.5c0.04,0.17,0.09,0.33,0.15,0.47c0.1,0.22,0.25,0.27,0.36,0.27c0.14,0,0.26-0.05,0.33-0.14
			c0.07-0.08,0.11-0.19,0.12-0.31c0.02-0.11,0.02-0.22,0.01-0.34c-0.01-0.1-0.01-0.19-0.01-0.26c0-0.3-0.01-0.6-0.02-0.9
			c-0.02-0.3-0.02-0.6-0.02-0.88c0-0.3,0.01-0.6,0.02-0.9c0.01-0.3,0.02-0.61,0.02-0.91c0-0.16-0.01-0.32-0.02-0.46
			c-0.02-0.21-0.16-0.33-0.39-0.33c-0.2,0-0.31,0.1-0.36,0.18c-0.06,0.08-0.11,0.17-0.15,0.26l-0.01,0.05
			c-0.03,0.39-0.13,0.72-0.3,0.99c-0.17,0.26-0.44,0.42-0.83,0.48c-0.38,0.06-0.77,0.09-1.16,0.1c-0.4,0.01-0.79,0.01-1.18,0.01
			c-0.09,0-0.2,0-0.33,0.01c-0.13,0.01-0.26,0.01-0.39,0c-0.13-0.01-0.25-0.02-0.35-0.05c-0.08-0.02-0.13-0.05-0.17-0.08
			c-0.02-0.1-0.03-0.23-0.03-0.39v-0.49c0-0.49,0-0.98-0.01-1.47c-0.01-0.48-0.01-0.97-0.01-1.46c0-0.24,0.01-0.5,0.02-0.76
			c0.01-0.25,0.06-0.48,0.13-0.68c0.07-0.2,0.18-0.35,0.33-0.47c0.15-0.12,0.37-0.18,0.67-0.18h0.95c0.29,0,0.59,0.01,0.91,0.01
			c0.32,0.01,0.63,0.03,0.93,0.05c0.31,0.03,0.57,0.07,0.8,0.12c0.23,0.04,0.4,0.1,0.52,0.17c0.18,0.1,0.31,0.25,0.41,0.47
			c0.11,0.23,0.2,0.47,0.29,0.71c0.09,0.25,0.17,0.46,0.26,0.65c0.14,0.28,0.33,0.34,0.47,0.34h0c0.27-0.03,0.32-0.39,0.34-0.51
			c0.04-0.26,0.05-0.53,0.05-0.82c0-0.26,0-0.47,0.01-0.65c0.01-0.18,0.01-0.34,0.01-0.47c0-0.25-0.03-0.53-0.09-0.83
			c-0.03-0.11-0.12-0.26-0.38-0.31c-0.16-0.03-0.33-0.04-0.5-0.04h-0.24c-1.02,0-2,0.01-2.92,0.03c-0.94,0.02-1.92,0.03-2.91,0.03
			c-0.5,0-1-0.01-1.48-0.03c-0.47-0.02-0.96-0.03-1.47-0.03c-0.13,0-0.29,0-0.47-0.01c-0.19-0.01-0.37,0-0.55,0.02
			c-0.18,0.02-0.33,0.06-0.46,0.12c-0.17,0.07-0.27,0.21-0.27,0.39c0,0.14,0.06,0.4,0.45,0.46c0.22,0.03,0.47,0.07,0.76,0.11
			c0.26,0.03,0.51,0.11,0.73,0.22c0.19,0.1,0.3,0.31,0.33,0.65c0.01,0.06,0.02,0.12,0.02,0.17v0.58c0,1.16,0.01,2.32,0.02,3.46
			c0.01,1.11,0.02,2.28,0.02,3.46c0,0.36,0.01,0.78,0.02,1.26c0.01,0.48,0.02,0.96,0.02,1.43c0,0.46-0.02,0.88-0.06,1.25
			c-0.04,0.36-0.11,0.63-0.21,0.78c-0.11,0.17-0.28,0.29-0.5,0.37c-0.22,0.09-0.47,0.16-0.72,0.22c-0.24,0.06-0.46,0.11-0.65,0.17
			c-0.3,0.1-0.36,0.26-0.36,0.38c0,0.38,0.22,0.46,0.36,0.48c0.16,0.02,0.32,0.02,0.48,0.02c0.22,0,0.43-0.01,0.64-0.02
			c0.21-0.01,0.41-0.02,0.61-0.02h10.15c0.29,0,0.51-0.11,0.65-0.32l0.02-0.05c0.1-0.46,0.18-0.83,0.25-1.11l0.18-0.8
			c0.06-0.25,0.09-0.39,0.09-0.41c0.02-0.04,0.04-0.09,0.08-0.27c0.03-0.12,0.04-0.18,0.04-0.21c0.06-0.13,0.08-0.27,0.06-0.41
			C148.32,42.76,148.24,42.59,147.92,42.59"/>
		<path fill="#0057A8" d="M159.77,36.39c-0.2,0.42-0.47,0.75-0.82,0.98c-0.35,0.24-0.77,0.4-1.25,0.49
			c-0.49,0.09-1.03,0.14-1.59,0.14c-0.24,0-0.42-0.02-0.52-0.06c-0.11-0.04-0.14-0.09-0.16-0.14c-0.03-0.08-0.04-0.19-0.04-0.33
			c0.01-0.15,0.01-0.34,0.01-0.55c0-0.57,0-1.22,0.02-1.93c0.01-0.72,0.02-1.36,0.02-1.94v-0.73c0-0.31,0.07-0.54,0.2-0.7
			c0.09-0.1,0.32-0.22,0.89-0.22c0.51,0,0.99,0.07,1.42,0.22c0.42,0.15,0.79,0.36,1.1,0.64c0.31,0.28,0.55,0.63,0.73,1.04
			c0.18,0.41,0.27,0.9,0.27,1.45C160.07,35.43,159.96,35.98,159.77,36.39 M166.02,46.54c-0.15-0.04-0.31-0.08-0.48-0.16
			c-0.58-0.13-1.09-0.39-1.53-0.78c-0.45-0.4-0.86-0.87-1.22-1.4c-0.37-0.54-0.71-1.12-1-1.71c-0.3-0.61-0.58-1.18-0.85-1.73
			c-0.27-0.55-0.54-1.03-0.8-1.43c-0.21-0.3-0.42-0.53-0.65-0.68c0.3-0.15,0.6-0.32,0.91-0.52c0.38-0.25,0.74-0.54,1.06-0.86
			c0.32-0.32,0.58-0.69,0.78-1.1c0.2-0.41,0.3-0.86,0.3-1.34c0-0.87-0.17-1.59-0.49-2.15c-0.33-0.56-0.74-1.01-1.22-1.34
			c-0.48-0.33-1.01-0.56-1.57-0.68c-0.55-0.12-1.08-0.19-1.56-0.19c-0.56,0-1.11,0.01-1.65,0.03c-0.54,0.02-1.09,0.03-1.64,0.03
			h-1.87c-0.15,0-0.31-0.01-0.47-0.02c-0.35-0.03-0.68-0.04-0.99,0.04c-0.12,0.03-0.33,0.13-0.33,0.48c0,0.19,0.09,0.32,0.26,0.38
			c0.13,0.05,0.29,0.08,0.48,0.09c0.18,0.02,0.37,0.03,0.57,0.05c0.19,0.01,0.37,0.05,0.54,0.11c0.16,0.06,0.28,0.15,0.38,0.29
			c0.1,0.13,0.15,0.33,0.15,0.59c0,1.2-0.01,2.42-0.03,3.64c-0.02,1.22-0.03,2.44-0.03,3.63v4.43c0,0.27-0.05,0.48-0.15,0.64
			c-0.1,0.15-0.24,0.28-0.4,0.37c-0.17,0.09-0.35,0.16-0.53,0.19c-0.2,0.04-0.39,0.07-0.57,0.1c-0.18,0.03-0.33,0.06-0.46,0.1
			c-0.23,0.07-0.27,0.24-0.27,0.33c0,0.26,0.04,0.4,0.15,0.46c0.08,0.05,0.22,0.07,0.44,0.07c0.44,0,0.89-0.02,1.33-0.06
			c0.92-0.09,1.88-0.08,2.82,0.01c0.51,0.05,1.03,0.08,1.56,0.08c0.3,0,0.53-0.03,0.68-0.07c0.11-0.04,0.31-0.14,0.31-0.49
			c0-0.17-0.09-0.3-0.25-0.34c-0.11-0.03-0.23-0.05-0.36-0.05c-0.08,0-0.11-0.01-0.11-0.01l-0.03-0.01
			c-0.29-0.06-0.55-0.1-0.78-0.13c-0.21-0.03-0.4-0.08-0.55-0.16c-0.14-0.07-0.25-0.19-0.33-0.35c-0.08-0.17-0.13-0.43-0.13-0.78
			v-4.43c0-0.42,0.05-0.57,0.08-0.62c0.02-0.03,0.09-0.11,0.41-0.11c0.49,0,0.9,0.12,1.22,0.36c0.34,0.25,0.64,0.56,0.89,0.95
			c0.26,0.38,0.49,0.82,0.7,1.3c0.21,0.49,0.44,0.96,0.68,1.41c0.44,1.13,1.08,2.11,1.91,2.89c0.84,0.79,1.89,1.3,3.14,1.52
			c0.1,0.02,0.22,0.03,0.37,0.04c0.15,0.02,0.29,0.03,0.44,0.03c0.38,0,0.64-0.03,0.82-0.09l0.05-0.03
			c0.16-0.16,0.23-0.29,0.23-0.42C166.37,46.8,166.33,46.6,166.02,46.54"/>
		<path fill="#0057A8" d="M176.19,38.13c-0.49-0.32-1.06-0.63-1.7-0.93c-0.63-0.3-1.24-0.62-1.8-0.97
			c-0.56-0.34-1.04-0.74-1.42-1.18c-0.37-0.43-0.56-0.93-0.56-1.5c0-0.37,0.07-0.7,0.2-1c0.14-0.3,0.32-0.55,0.56-0.75
			c0.24-0.21,0.52-0.36,0.84-0.47c0.32-0.11,0.67-0.17,1.02-0.17c0.43,0,0.86,0.14,1.28,0.43c0.42,0.28,0.74,0.69,0.97,1.23
			c0.08,0.13,0.14,0.28,0.18,0.46c0.04,0.2,0.09,0.38,0.13,0.56c0.04,0.18,0.1,0.34,0.16,0.48c0.13,0.3,0.32,0.26,0.45,0.29
			c0.15,0.04,0.33,0.04,0.45-0.07c0.06-0.06,0.11-0.16,0.15-0.34c0.06-0.75,0.08-1.5,0.07-2.24c0-0.15,0.01-0.34,0.03-0.54
			c0.02-0.22,0.03-0.43,0.03-0.64c0-0.21-0.02-0.39-0.05-0.54c-0.06-0.28-0.23-0.32-0.32-0.32c-0.25,0-0.45,0.08-0.58,0.24
			c-0.12,0.14-0.21,0.29-0.28,0.43c-0.07,0.13-0.13,0.23-0.2,0.3c-0.02,0.02-0.05,0.04-0.19-0.03c-0.26-0.16-0.59-0.32-0.97-0.48
			c-0.39-0.16-0.74-0.24-1.06-0.24c-0.65,0-1.29,0.1-1.88,0.29c-0.59,0.2-1.12,0.49-1.56,0.87c-0.44,0.38-0.8,0.85-1.06,1.4
			c-0.26,0.55-0.39,1.19-0.39,1.89c0,0.8,0.19,1.48,0.57,2.02c0.37,0.54,0.84,1.01,1.4,1.41c0.55,0.4,1.15,0.76,1.8,1.07
			c0.63,0.31,1.22,0.65,1.76,1c0.53,0.35,0.98,0.75,1.34,1.2c0.35,0.44,0.52,0.98,0.52,1.62c0,0.44-0.07,0.84-0.21,1.18
			c-0.15,0.34-0.35,0.64-0.61,0.88c-0.26,0.25-0.56,0.44-0.91,0.56c-0.35,0.13-0.74,0.2-1.15,0.2c-0.56,0-1.11-0.15-1.63-0.45
			c-0.52-0.29-0.91-0.71-1.15-1.24c-0.07-0.14-0.13-0.3-0.17-0.49c-0.05-0.2-0.1-0.39-0.14-0.57c-0.04-0.18-0.1-0.34-0.16-0.48
			c-0.1-0.21-0.25-0.26-0.36-0.26c-0.03,0-0.07-0.01-0.11-0.02c-0.14-0.04-0.31-0.04-0.44,0.07c-0.08,0.07-0.12,0.18-0.14,0.35
			c-0.03,0.37-0.05,0.71-0.05,1.02c-0.01,0.3-0.01,0.64-0.01,1.02c0,0.15-0.01,0.35-0.03,0.62c-0.02,0.27-0.03,0.52-0.03,0.76
			c0,0.25,0.01,0.47,0.05,0.65c0.05,0.33,0.22,0.38,0.32,0.38c0.25,0,0.44-0.06,0.56-0.18c0.11-0.1,0.2-0.22,0.28-0.35
			c0.07-0.11,0.14-0.22,0.21-0.31c0.11-0.13,0.42-0.12,0.73,0.01c0.18,0.07,0.37,0.15,0.58,0.23c0.2,0.08,0.43,0.15,0.67,0.23
			c0.25,0.08,0.52,0.11,0.8,0.11c0.75-0.02,1.46-0.13,2.09-0.34c0.64-0.21,1.2-0.53,1.66-0.94c0.46-0.41,0.83-0.93,1.09-1.54
			c0.26-0.61,0.39-1.33,0.39-2.13c-0.02-0.75-0.2-1.46-0.54-2.12C177.3,39.09,176.81,38.55,176.19,38.13"/>
		<path fill="#0057A8" d="M185.91,35.63c0.02-0.88,0.03-1.79,0.03-2.69c0-0.25,0.01-0.48,0.02-0.66c0.01-0.16,0.06-0.29,0.14-0.4
			c0.08-0.1,0.22-0.18,0.4-0.24c0.2-0.05,0.5-0.08,0.87-0.08c0.21,0,0.4-0.02,0.56-0.07c0.12-0.03,0.32-0.14,0.32-0.49
			c0-0.06-0.02-0.13-0.05-0.23c-0.04-0.09-0.08-0.15-0.12-0.19l-0.04-0.04h-1.92c-0.21,0-0.43,0.01-0.64,0.03
			c-0.22,0.02-0.42,0.03-0.61,0.03c-0.41,0-0.83-0.02-1.24-0.06c-0.41-0.04-0.84-0.06-1.27-0.06h-0.24c-0.12,0-0.26,0.01-0.4,0.03
			c-0.2,0.03-0.32,0.17-0.32,0.38c0,0.32,0.15,0.45,0.28,0.51c0.15,0.06,0.34,0.1,0.55,0.12c0.2,0.01,0.4,0.04,0.61,0.07
			c0.19,0.03,0.35,0.12,0.47,0.24c0.05,0.06,0.12,0.21,0.17,0.54c0.04,0.29,0.06,0.54,0.06,0.78v0.41c0,0.36,0,0.72-0.01,1.07
			c-0.01,0.36-0.01,0.73-0.01,1.1l-0.02,7.53v0.45c0,0.26-0.02,0.54-0.05,0.83c-0.03,0.26-0.11,0.44-0.23,0.53
			c-0.13,0.12-0.29,0.19-0.48,0.24c-0.21,0.05-0.42,0.09-0.61,0.13c-0.19,0.04-0.37,0.08-0.52,0.13c-0.26,0.1-0.3,0.29-0.3,0.39
			c0,0.23,0.1,0.39,0.29,0.46c0.15,0.05,0.31,0.08,0.47,0.08h0.3c0.44,0,0.83-0.03,1.18-0.08c0.63-0.09,1.5-0.09,2.33-0.01
			c0.63,0.06,1.24,0.09,1.87,0.03c0.27-0.03,0.43-0.21,0.43-0.49c0-0.11-0.04-0.3-0.34-0.38c-0.16-0.04-0.35-0.08-0.56-0.12
			c-0.21-0.03-0.42-0.07-0.64-0.12c-0.2-0.04-0.36-0.11-0.46-0.2c-0.15-0.14-0.24-0.33-0.27-0.59c-0.03-0.28-0.05-0.53-0.05-0.76
			v-5.48C185.87,37.39,185.88,36.49,185.91,35.63"/>
		<path fill="#0057A8" d="M205.06,29.71c-0.08,0-0.2,0.04-0.3,0.2c-0.06,0.09-0.12,0.19-0.21,0.3c-0.08,0.1-0.17,0.21-0.28,0.3
			c-0.1,0.08-0.22,0.14-0.36,0.16c-0.21,0.03-0.43,0.04-0.64,0.05c-0.93,0.03-1.81,0.02-2.64,0.03c-1.42,0.03-3.08,0.03-4.63-0.01
			c-0.87-0.02-1.76-0.06-2.64-0.1c-0.19-0.01-0.34-0.05-0.44-0.13c-0.11-0.08-0.2-0.16-0.26-0.24c-0.07-0.09-0.13-0.17-0.18-0.24
			c-0.1-0.14-0.21-0.16-0.29-0.16c-0.22,0-0.4,0.06-0.52,0.18c-0.12,0.11-0.2,0.24-0.26,0.4c-0.05,0.15-0.09,0.33-0.1,0.52l0,0.08
			c-0.01,0.15-0.03,0.29-0.04,0.43c-0.07,0.74-0.16,1.31-0.28,1.71c-0.12,0.42-0.18,0.76-0.18,1.01c0,0.2,0.05,0.34,0.16,0.42
			c0.1,0.08,0.23,0.12,0.41,0.12c0.12,0,0.22-0.1,0.38-0.37c0.13-0.21,0.26-0.44,0.38-0.68c0.13-0.25,0.25-0.49,0.37-0.72
			c0.14-0.27,0.21-0.38,0.25-0.41c0.27-0.26,0.55-0.43,0.84-0.52c0.29-0.09,0.6-0.13,0.92-0.13h1.34c0.34,0,0.66,0.02,0.95,0.07
			c0.27,0.05,0.38,0.12,0.39,0.17c0.01,0.06,0.02,0.18,0.03,0.38c0.01,0.19,0.01,0.33,0.01,0.4v10.41c0,0.4-0.02,0.73-0.06,0.99
			c-0.04,0.25-0.12,0.46-0.24,0.62c-0.12,0.16-0.29,0.28-0.51,0.38c-0.24,0.09-0.56,0.16-0.98,0.21c-0.03,0.01-0.1,0.02-0.25,0.02
			c-0.16,0-0.31,0.03-0.46,0.08c-0.13,0.05-0.28,0.17-0.28,0.45c0,0.32,0.21,0.38,0.3,0.39c0.13,0.02,0.25,0.02,0.37,0.02
			c0.52,0,1.04-0.02,1.55-0.06c1.02-0.07,2.2-0.06,3.23,0c0.56,0.04,1.14,0.05,1.72,0.05c0.18,0,0.33-0.01,0.45-0.02
			c0.18-0.03,0.26-0.19,0.26-0.5c0-0.14-0.06-0.38-0.49-0.43l-0.85-0.1c-0.3-0.03-0.59-0.11-0.86-0.25
			c-0.25-0.12-0.4-0.35-0.46-0.71c-0.04-0.22-0.07-0.45-0.07-0.67c-0.01-0.23-0.01-0.46-0.01-0.68c0.03-1.27,0.02-2.54-0.01-3.79
			c-0.04-1.26-0.04-2.53-0.01-3.78l0.04-2.63c0-0.32,0.02-0.56,0.05-0.72c0.04-0.18,0.09-0.25,0.11-0.28
			c0.03-0.03,0.07-0.05,0.12-0.05h0c0.19,0.02,0.4,0.02,0.73,0c0.4-0.02,0.94-0.02,1.48,0.02c0.32,0.02,0.62,0.06,0.9,0.11
			c0.28,0.05,0.51,0.13,0.71,0.23c0.18,0.09,0.3,0.21,0.36,0.35c0.08,0.2,0.11,0.41,0.1,0.63c-0.01,0.24-0.03,0.47-0.06,0.67
			c-0.02,0.23-0.02,0.41,0.01,0.56c0.02,0.11,0.11,0.31,0.43,0.31c0.28,0,0.48-0.19,0.59-0.57c0.09-0.32,0.17-0.7,0.22-1.14
			c0.05-0.43,0.09-0.87,0.13-1.33c0.03-0.43,0.1-0.79,0.2-1.05c0.07-0.19,0.06-0.39-0.01-0.6C205.6,29.91,205.45,29.71,205.06,29.71
			"/>
		<path fill="#0057A8" d="M224.56,30.62c-0.18-0.08-0.39-0.12-0.6-0.12c-0.37,0-0.75,0.02-1.13,0.08c-0.66,0.09-1.39,0.1-2.06,0.01
			c-0.33-0.04-0.67-0.07-1.01-0.07c-0.16,0-0.28,0.01-0.37,0.04c-0.14,0.04-0.21,0.18-0.21,0.42c0,0.27,0.14,0.44,0.41,0.49
			c0.21,0.04,0.44,0.06,0.67,0.08c0.23,0.02,0.44,0.05,0.63,0.11c0.1,0.03,0.21,0.1,0.21,0.33c0,0.02-0.03,0.1-0.24,0.43
			c-0.17,0.27-0.38,0.59-0.66,0.99c-0.26,0.39-0.55,0.81-0.87,1.26c-0.33,0.47-0.63,0.89-0.91,1.27c-0.29,0.39-0.55,0.74-0.77,1.03
			c-0.22,0.29-0.37,0.48-0.45,0.56c-0.03,0.03-0.06,0.06-0.11,0.1c-0.02,0.02-0.04,0.03-0.05,0.04c-0.02-0.01-0.04-0.03-0.05-0.05
			c-0.04-0.05-0.08-0.11-0.12-0.17c-0.37-0.46-0.73-0.94-1.07-1.42c-0.34-0.49-0.69-0.99-1.04-1.5c-0.13-0.17-0.29-0.38-0.48-0.64
			c-0.19-0.24-0.37-0.5-0.55-0.77c-0.18-0.27-0.34-0.51-0.47-0.75c-0.12-0.23-0.19-0.41-0.19-0.54c0-0.13,0.05-0.2,0.19-0.22
			c0.2-0.03,0.41-0.05,0.64-0.06c0.24-0.01,0.47-0.03,0.68-0.07c0.26-0.05,0.41-0.23,0.41-0.5c0-0.12-0.07-0.23-0.22-0.33
			c-0.13-0.09-0.24-0.13-0.34-0.13c-0.55,0-1.12,0.02-1.68,0.08c-0.92,0.08-1.9,0.12-2.8-0.01c-0.39-0.06-0.8-0.09-1.2-0.09
			c-0.12,0-0.23,0.01-0.34,0.02c-0.08,0.01-0.26,0.07-0.26,0.37c0,0.21,0.12,0.37,0.33,0.44c0.15,0.05,0.34,0.1,0.58,0.15
			c0.21,0.05,0.43,0.12,0.68,0.22c0.22,0.09,0.4,0.24,0.54,0.45c0.78,1.12,1.56,2.22,2.31,3.28c0.78,1.09,1.56,2.19,2.31,3.28
			c0.16,0.22,0.24,0.47,0.25,0.74c0.01,0.31,0.02,0.69,0.02,1.12v1.89c0,0.26,0,0.53-0.01,0.82c-0.01,0.3-0.02,0.56-0.04,0.8
			c-0.02,0.24-0.05,0.46-0.09,0.64c-0.04,0.17-0.09,0.3-0.14,0.36c-0.14,0.15-0.33,0.24-0.56,0.28c-0.26,0.04-0.52,0.08-0.77,0.12
			c-0.26,0.04-0.48,0.1-0.65,0.19c-0.12,0.06-0.31,0.22-0.2,0.58c0.01,0.12,0.08,0.2,0.19,0.23c0.07,0.02,0.13,0.02,0.18,0.02
			c0.52,0,1.04-0.03,1.55-0.08c1.03-0.1,2.14-0.09,3.2,0c0.57,0.05,1.14,0.08,1.7,0.08c0.26,0,0.38-0.12,0.44-0.22
			c0.07-0.12,0.1-0.26,0.1-0.41l-0.01-0.05c-0.07-0.18-0.21-0.3-0.39-0.35c-0.15-0.03-0.32-0.06-0.54-0.07
			c-0.19-0.01-0.39-0.02-0.6-0.03c-0.19-0.01-0.37-0.06-0.52-0.13c-0.15-0.07-0.27-0.2-0.37-0.39c-0.1-0.19-0.16-0.47-0.16-0.83
			v-4.28c0-0.29,0.08-0.61,0.24-0.93c0.16-0.33,0.36-0.67,0.61-1c0.25-0.33,0.51-0.66,0.79-0.98c0.3-0.35,0.55-0.65,0.77-0.92
			c0.5-0.65,1-1.29,1.49-1.94c0.48-0.62,0.99-1.25,1.53-1.89c0.14-0.17,0.3-0.28,0.46-0.35c0.17-0.07,0.35-0.11,0.51-0.14
			c0.18-0.03,0.34-0.06,0.49-0.1c0.18-0.04,0.31-0.14,0.39-0.3c0.06-0.13,0.08-0.25,0.04-0.35
			C224.74,30.74,224.67,30.67,224.56,30.62"/>
		<path fill="#0057A8" d="M241.15,41.69c-0.01,0.63-0.12,1.24-0.32,1.81c-0.2,0.57-0.52,1.06-0.95,1.47
			c-0.42,0.41-1.01,0.68-1.74,0.81c-0.29,0.05-0.56,0.08-0.82,0.08c-0.42,0-0.81-0.07-1.16-0.21c-0.57-0.23-1.05-0.57-1.46-1.02
			c-0.4-0.45-0.73-0.98-0.97-1.57c-0.25-0.6-0.43-1.21-0.52-1.8c-0.11-0.58-0.17-1.19-0.16-1.81c0-0.62,0.11-1.2,0.3-1.74
			c0.19-0.53,0.51-1.01,0.93-1.4c0.42-0.39,1.02-0.66,1.76-0.8c0.28-0.05,0.55-0.08,0.81-0.08c0.38,0,0.74,0.05,1.07,0.17
			c0.56,0.2,1.05,0.5,1.46,0.91c0.42,0.42,0.76,0.93,1.03,1.5c0.27,0.59,0.47,1.21,0.59,1.86
			C241.11,40.43,241.16,41.05,241.15,41.69 M241.37,36.23c-0.56-0.52-1.22-0.93-1.95-1.22c-0.74-0.29-1.54-0.44-2.36-0.44
			c-0.86,0-1.66,0.16-2.39,0.47c-0.72,0.31-1.36,0.74-1.89,1.29c-0.53,0.55-0.95,1.2-1.24,1.95c-0.29,0.75-0.44,1.56-0.44,2.43
			c0,0.87,0.15,1.68,0.44,2.41c0.29,0.73,0.7,1.37,1.21,1.91c0.52,0.54,1.14,0.96,1.86,1.26c0.72,0.3,1.52,0.45,2.37,0.45
			c0.86,0,1.68-0.17,2.43-0.5c0.76-0.33,1.42-0.78,1.99-1.35c0.56-0.56,1.01-1.22,1.33-1.97c0.32-0.75,0.48-1.56,0.48-2.4
			c0-0.88-0.17-1.7-0.49-2.42C242.38,37.38,241.93,36.75,241.37,36.23"/>
		<path fill="#0057A8" d="M252.35,34.87c-0.02,0-0.06,0-0.11-0.01c-0.06-0.01-0.14-0.01-0.23-0.01h-0.34c-0.48,0-0.94,0-1.41,0.01
			c-0.47,0.01-0.93,0.01-1.41,0.01h-2.4c-0.08,0-0.23,0-0.46-0.01c-0.22-0.01-0.46-0.01-0.71-0.01c-0.27,0-0.48,0-0.63,0.01
			c-0.16,0.01-0.29,0.02-0.38,0.05c-0.11,0.04-0.19,0.09-0.22,0.17c-0.03,0.06-0.04,0.13-0.04,0.21c0,0.15,0.08,0.26,0.21,0.3
			c0.09,0.03,0.2,0.05,0.34,0.05c0.12,0.01,0.25,0.01,0.38,0.02c0.12,0.01,0.24,0.04,0.34,0.09c0.1,0.05,0.18,0.13,0.25,0.23
			s0.1,0.27,0.1,0.49c0,0.99,0.01,1.99,0.02,3.05c0.02,0.96,0.02,1.96,0.02,3.05v0.57c0,0.18,0,0.39-0.01,0.61
			c-0.01,0.22-0.01,0.44-0.02,0.65c-0.01,0.21-0.03,0.39-0.05,0.55c-0.02,0.2-0.05,0.27-0.07,0.31c-0.07,0.16-0.18,0.26-0.38,0.29
			c-0.05,0.02-0.13,0.03-0.26,0.05c-0.13,0.02-0.26,0.03-0.39,0.05c-0.14,0.03-0.26,0.06-0.36,0.11c-0.19,0.09-0.22,0.23-0.22,0.31
			c0,0.18,0.11,0.3,0.29,0.33c0.12,0.02,0.22,0.02,0.31,0.02c0.29,0,0.59-0.02,0.88-0.05c0.62-0.08,1.33-0.06,1.99,0
			c0.38,0.04,0.77,0.05,1.16,0.05h0.15c0.12,0,0.24-0.02,0.35-0.06c0.15-0.06,0.24-0.17,0.24-0.32c0-0.21-0.12-0.35-0.33-0.4
			c-0.16-0.04-0.35-0.07-0.56-0.09c-0.2-0.02-0.4-0.06-0.58-0.12c-0.17-0.05-0.29-0.16-0.37-0.33c0,0-0.01-0.02-0.02-0.12
			c-0.01-0.09-0.01-0.2-0.03-0.32c-0.01-0.11-0.01-0.23-0.01-0.35v-0.68c0-0.47,0-0.92,0.01-1.38c0.01-0.46,0.02-0.92,0.02-1.38
			c0-0.08,0.03-0.11,0.06-0.13c0.06-0.04,0.13-0.07,0.22-0.08c0.1-0.01,0.2-0.02,0.31-0.01c0.12,0,0.21,0.01,0.28,0.01h0.42
			c0.24,0,0.5,0,0.78,0.02c0.28,0.02,0.48,0.05,0.62,0.09c0.2,0.05,0.33,0.15,0.42,0.29c0.1,0.17,0.17,0.34,0.22,0.51l0.14,0.49
			c0.08,0.27,0.25,0.31,0.34,0.31c0.15,0,0.23-0.07,0.27-0.13c0.05-0.07,0.08-0.15,0.1-0.25s0.02-0.18,0.02-0.26
			c0-0.08-0.01-0.14-0.01-0.2c0-0.24-0.01-0.46-0.02-0.68c-0.02-0.2-0.03-0.42-0.03-0.66c0-0.22,0-0.45,0.02-0.66
			c0.01-0.22,0.02-0.45,0.02-0.68c0-0.06-0.01-0.15-0.03-0.24c-0.03-0.18-0.15-0.25-0.26-0.25c-0.22,0-0.32,0.11-0.38,0.2
			c-0.06,0.1-0.1,0.22-0.14,0.36c-0.03,0.12-0.07,0.25-0.11,0.39c-0.04,0.12-0.1,0.23-0.19,0.32c-0.06,0.06-0.15,0.1-0.26,0.14
			c-0.13,0.04-0.28,0.07-0.46,0.1c-0.17,0.02-0.35,0.04-0.55,0.04c-0.19,0-0.38,0-0.55,0h-0.56c-0.12,0-0.22,0.01-0.32,0.01l-0.04,0
			c-0.06,0-0.12-0.01-0.17-0.03c-0.05-0.02-0.08-0.05-0.12-0.1c-0.02-0.03-0.05-0.11-0.05-0.29c0-0.47,0-0.93-0.01-1.39
			c0-0.47-0.01-0.93-0.01-1.39c0-0.2,0.01-0.39,0.04-0.56c0.02-0.14,0.11-0.27,0.25-0.37c0.06-0.04,0.2-0.09,0.47-0.12
			c0.25-0.03,0.46-0.04,0.66-0.04h0.34c0.11,0,0.26,0,0.45,0.01c0.19,0,0.38,0.01,0.58,0.03c0.2,0.02,0.39,0.03,0.58,0.06
			c0.17,0.02,0.31,0.05,0.4,0.08c0.19,0.07,0.32,0.18,0.4,0.34c0.08,0.18,0.14,0.36,0.18,0.54c0.04,0.2,0.08,0.37,0.12,0.51
			c0.06,0.2,0.21,0.31,0.42,0.31c0.13,0,0.21-0.06,0.24-0.11c0.04-0.06,0.08-0.13,0.09-0.21c0.01-0.07,0.02-0.14,0.02-0.22v-0.2
			c0-0.08,0-0.22,0.01-0.41c0.01-0.2,0.01-0.4,0-0.61c0-0.2-0.02-0.39-0.04-0.55C252.57,35.09,252.53,34.9,252.35,34.87"/>
		<path fill="#0057A8" d="M275.18,31.73c0.04-0.44,0.1-0.79,0.2-1.05c0.07-0.19,0.06-0.39-0.01-0.6c-0.06-0.17-0.21-0.37-0.59-0.37
			c-0.08,0-0.2,0.04-0.3,0.2c-0.06,0.09-0.13,0.19-0.21,0.3c-0.08,0.11-0.17,0.21-0.28,0.3c-0.1,0.09-0.22,0.14-0.36,0.16
			c-0.21,0.03-0.43,0.05-0.64,0.05c-0.93,0.03-1.8,0.02-2.64,0.03c-1.42,0.04-3.08,0.03-4.63-0.01c-0.87-0.02-1.75-0.06-2.64-0.1
			c-0.19-0.01-0.34-0.05-0.44-0.13c-0.11-0.08-0.2-0.16-0.26-0.24c-0.07-0.09-0.13-0.17-0.18-0.24c-0.1-0.14-0.21-0.16-0.29-0.16
			c-0.22,0-0.39,0.06-0.52,0.18c-0.12,0.11-0.2,0.24-0.26,0.4c-0.05,0.15-0.09,0.33-0.1,0.52c-0.01,0.18-0.03,0.35-0.04,0.5
			c-0.07,0.74-0.16,1.31-0.28,1.71c-0.12,0.43-0.18,0.76-0.18,1.02c0,0.2,0.05,0.34,0.16,0.42c0.09,0.08,0.23,0.12,0.41,0.12
			c0.12,0,0.22-0.1,0.38-0.37c0.13-0.21,0.26-0.44,0.38-0.68c0.13-0.25,0.25-0.49,0.37-0.72c0.13-0.27,0.21-0.38,0.25-0.41
			c0.27-0.26,0.55-0.43,0.84-0.52c0.29-0.09,0.6-0.13,0.92-0.13h1.33c0.34,0,0.66,0.02,0.95,0.07c0.35,0.06,0.38,0.15,0.39,0.17
			c0.01,0.07,0.02,0.24,0.03,0.37c0.01,0.19,0.01,0.33,0.01,0.4v10.41c0,0.39-0.02,0.72-0.06,0.99c-0.04,0.25-0.12,0.46-0.23,0.62
			c-0.11,0.16-0.29,0.28-0.51,0.38c-0.23,0.09-0.56,0.16-0.99,0.21c-0.03,0.01-0.1,0.02-0.24,0.02c-0.16,0-0.31,0.03-0.46,0.08
			c-0.13,0.05-0.28,0.17-0.28,0.45c0,0.32,0.21,0.38,0.3,0.39c0.13,0.01,0.25,0.02,0.37,0.02c0.52,0,1.04-0.02,1.55-0.05
			c1.03-0.07,2.21-0.07,3.23,0c0.56,0.04,1.14,0.05,1.72,0.05c0.18,0,0.33-0.01,0.45-0.02c0.17-0.03,0.26-0.19,0.26-0.5
			c0-0.14-0.06-0.38-0.49-0.43l-0.85-0.1c-0.3-0.03-0.59-0.11-0.86-0.25c-0.25-0.12-0.4-0.35-0.46-0.71
			c-0.04-0.22-0.07-0.44-0.07-0.67c-0.01-0.22-0.01-0.46-0.01-0.68c0.03-1.25,0.03-2.53-0.01-3.79c-0.04-1.23-0.04-2.5-0.01-3.78
			l0.04-2.63c0-0.32,0.02-0.56,0.05-0.71c0.04-0.19,0.08-0.26,0.11-0.28c0.04-0.04,0.07-0.05,0.12-0.05c0.19,0.02,0.4,0.01,0.73,0
			c0.4-0.02,0.94-0.02,1.48,0.02c0.32,0.02,0.62,0.06,0.9,0.11c0.27,0.05,0.51,0.13,0.71,0.22c0.18,0.1,0.3,0.21,0.36,0.35
			c0.08,0.2,0.11,0.41,0.1,0.63c-0.02,0.24-0.03,0.46-0.05,0.67c-0.02,0.23-0.02,0.41,0.01,0.56c0.02,0.12,0.11,0.31,0.43,0.31
			c0.19,0,0.45-0.1,0.59-0.57c0.09-0.31,0.17-0.7,0.22-1.14C275.1,32.62,275.14,32.18,275.18,31.73"/>
		<path fill="#0057A8" d="M284.14,38.24c-0.03,0.01-0.05,0.01-0.07,0.02c-0.88,0-1.57,0-2.05,0.01c-0.49,0-0.86,0.01-1.11,0.01
			h-0.38l0.63-1.52c0.19-0.44,0.35-0.85,0.5-1.21c0.14-0.35,0.29-0.7,0.43-1.04c0.11-0.27,0.25-0.58,0.4-0.93
			c0.03,0.08,0.07,0.19,0.12,0.33c0.12,0.34,0.27,0.76,0.44,1.26c0.17,0.49,0.36,1.03,0.56,1.59
			C283.8,37.29,283.97,37.78,284.14,38.24 M291.11,45.51c-0.18-0.05-0.39-0.1-0.61-0.14c-0.22-0.04-0.45-0.1-0.68-0.19
			c-0.2-0.07-0.36-0.23-0.48-0.47c-0.73-1.52-1.43-3.05-2.08-4.58c-0.65-1.51-1.28-3.07-1.89-4.64c-0.33-0.82-0.67-1.65-1.01-2.49
			c-0.34-0.85-0.68-1.68-1.01-2.5c-0.03-0.08-0.08-0.16-0.15-0.25c-0.08-0.11-0.2-0.17-0.34-0.17c-0.16,0-0.27,0.04-0.33,0.13
			c-0.05,0.06-0.08,0.15-0.11,0.23c-0.53,1.31-1.06,2.61-1.59,3.89c-0.53,1.29-1.06,2.59-1.59,3.9l-0.94,2.29
			c-0.31,0.75-0.62,1.52-0.92,2.29c-0.04,0.1-0.1,0.26-0.18,0.46c-0.08,0.21-0.16,0.42-0.26,0.63l-0.27,0.61
			c-0.1,0.23-0.15,0.31-0.18,0.36c-0.11,0.17-0.24,0.29-0.39,0.33c-0.17,0.06-0.34,0.1-0.5,0.13c-0.18,0.03-0.33,0.08-0.46,0.14
			c-0.11,0.06-0.24,0.19-0.24,0.49c0,0.11,0.03,0.22,0.1,0.31c0.05,0.08,0.15,0.17,0.33,0.17c0.33,0,0.63-0.02,0.91-0.06
			c0.64-0.09,1.47-0.06,2.26,0.02c0.48,0.05,0.96,0.08,1.41,0.08c0.15,0,0.28-0.05,0.39-0.15c0.11-0.1,0.17-0.23,0.17-0.38
			c0-0.28-0.16-0.46-0.45-0.53c-0.22-0.05-0.48-0.09-0.78-0.12c-0.26-0.02-0.51-0.08-0.73-0.16c-0.11-0.04-0.26-0.13-0.26-0.46
			c0-0.03,0.01-0.13,0.13-0.57c0.09-0.33,0.22-0.74,0.38-1.22c0.16-0.48,0.35-1.03,0.57-1.62c0.21-0.56,0.44-1.14,0.69-1.73
			c0.17-0.03,0.37-0.06,0.61-0.07c0.57-0.03,1.17-0.03,1.71-0.01c0.28,0,0.51,0.01,0.68,0.01h0.41c0.23,0,0.46,0.01,0.7,0.03
			c0.2,0.02,0.34,0.08,0.44,0.17c0.01,0,0.03,0.03,0.09,0.17c0.05,0.12,0.11,0.25,0.18,0.38c0.21,0.52,0.42,1.02,0.62,1.5
			c0.2,0.49,0.38,0.93,0.53,1.33l0.41,1.04c0.11,0.28,0.19,0.5,0.23,0.64l0.04,0.14c0.01,0.04,0.02,0.07,0.02,0.1
			c0,0.24-0.11,0.3-0.21,0.33c-0.19,0.05-0.4,0.09-0.65,0.1c-0.25,0.02-0.48,0.04-0.69,0.07c-0.36,0.05-0.42,0.28-0.42,0.41
			c0,0.17,0.07,0.31,0.2,0.42c0.12,0.11,0.27,0.16,0.43,0.16c0.51,0,1.01-0.03,1.51-0.06c0.83-0.07,1.66-0.11,2.5,0
			c0.35,0.04,0.7,0.06,1.05,0.06h0.24c0.16,0,0.32-0.03,0.49-0.08c0.27-0.09,0.31-0.28,0.31-0.39
			C291.46,45.74,291.33,45.57,291.11,45.51"/>
		<path fill="#0057A8" d="M302.5,36.39c-0.2,0.42-0.47,0.75-0.81,0.98c-0.35,0.24-0.77,0.4-1.25,0.49
			c-0.49,0.09-1.03,0.14-1.59,0.14c-0.24,0-0.42-0.02-0.53-0.06c-0.11-0.04-0.14-0.09-0.16-0.14c-0.03-0.08-0.04-0.19-0.04-0.33
			c0.01-0.15,0.01-0.34,0.01-0.55c0-0.57,0.01-1.22,0.02-1.93c0.01-0.72,0.02-1.36,0.02-1.94v-0.73c0-0.31,0.07-0.54,0.21-0.7
			c0.09-0.1,0.32-0.22,0.89-0.22c0.51,0,0.99,0.07,1.42,0.22c0.42,0.15,0.79,0.36,1.1,0.64c0.31,0.28,0.56,0.63,0.73,1.04
			c0.18,0.41,0.27,0.9,0.27,1.45C302.8,35.43,302.7,35.98,302.5,36.39 M308.75,46.54c-0.15-0.04-0.31-0.08-0.48-0.16
			c-0.58-0.13-1.09-0.39-1.53-0.78c-0.45-0.4-0.86-0.87-1.23-1.4c-0.36-0.53-0.7-1.11-1-1.71c-0.3-0.61-0.58-1.18-0.85-1.73
			c-0.27-0.56-0.54-1.03-0.8-1.43c-0.21-0.31-0.42-0.53-0.65-0.68c0.3-0.15,0.6-0.32,0.91-0.52c0.38-0.25,0.74-0.54,1.06-0.86
			c0.32-0.33,0.58-0.7,0.78-1.1c0.2-0.41,0.3-0.86,0.3-1.34c0-0.87-0.17-1.59-0.49-2.15c-0.32-0.56-0.73-1.01-1.22-1.34
			c-0.48-0.33-1.01-0.56-1.57-0.68c-0.55-0.12-1.07-0.19-1.56-0.19c-0.56,0-1.11,0.01-1.65,0.03c-0.53,0.02-1.09,0.03-1.64,0.03
			h-1.87c-0.15,0-0.31-0.01-0.47-0.02c-0.35-0.03-0.68-0.04-0.99,0.04c-0.12,0.03-0.33,0.13-0.33,0.48c0,0.19,0.09,0.32,0.26,0.38
			c0.13,0.05,0.29,0.08,0.48,0.09c0.18,0.02,0.37,0.03,0.57,0.05c0.19,0.01,0.37,0.05,0.53,0.11c0.16,0.06,0.28,0.15,0.38,0.29
			c0.1,0.13,0.15,0.33,0.15,0.59c0,1.2-0.01,2.42-0.03,3.64c-0.02,1.21-0.03,2.43-0.03,3.63v4.43c0,0.27-0.05,0.48-0.15,0.64
			c-0.1,0.15-0.24,0.28-0.4,0.37c-0.17,0.09-0.34,0.16-0.53,0.19c-0.2,0.04-0.39,0.07-0.57,0.1c-0.18,0.03-0.34,0.06-0.46,0.1
			c-0.23,0.07-0.27,0.24-0.27,0.33c0,0.26,0.05,0.4,0.15,0.46c0.08,0.05,0.21,0.07,0.44,0.07c0.44,0,0.89-0.02,1.34-0.06
			c0.91-0.09,1.88-0.08,2.82,0.01c0.5,0.05,1.03,0.08,1.56,0.08c0.31,0,0.53-0.03,0.69-0.07c0.12-0.04,0.31-0.14,0.31-0.49
			c0-0.17-0.09-0.3-0.24-0.34c-0.11-0.03-0.23-0.05-0.36-0.05c-0.08,0-0.11-0.01-0.11-0.01l-0.03-0.01
			c-0.29-0.06-0.55-0.1-0.78-0.13c-0.21-0.03-0.4-0.08-0.55-0.16c-0.14-0.07-0.25-0.19-0.33-0.35c-0.08-0.17-0.13-0.43-0.13-0.78
			v-4.43c0-0.42,0.05-0.57,0.08-0.62c0.02-0.03,0.1-0.11,0.41-0.11c0.49,0,0.9,0.12,1.22,0.36c0.34,0.25,0.64,0.56,0.89,0.95
			c0.26,0.38,0.49,0.82,0.7,1.3c0.21,0.49,0.44,0.96,0.68,1.41c0.43,1.13,1.08,2.1,1.91,2.89c0.84,0.79,1.89,1.3,3.14,1.52
			c0.1,0.02,0.22,0.03,0.37,0.04c0.15,0.02,0.29,0.03,0.44,0.03c0.38,0,0.64-0.03,0.82-0.09l0.05-0.03
			c0.16-0.16,0.23-0.29,0.23-0.42C309.11,46.8,309.06,46.6,308.75,46.54"/>
		<path fill="#0057A8" d="M323.03,29.71c-0.08,0-0.2,0.04-0.3,0.2c-0.06,0.09-0.12,0.19-0.21,0.3c-0.08,0.1-0.17,0.21-0.28,0.3
			c-0.1,0.08-0.22,0.14-0.36,0.16c-0.21,0.03-0.43,0.04-0.64,0.05c-0.93,0.03-1.8,0.02-2.64,0.03c-1.42,0.03-3.08,0.03-4.63-0.01
			c-0.87-0.02-1.76-0.06-2.64-0.1c-0.19-0.01-0.33-0.05-0.44-0.13c-0.11-0.08-0.2-0.16-0.26-0.24c-0.07-0.09-0.13-0.17-0.18-0.24
			c-0.1-0.14-0.21-0.16-0.29-0.16c-0.22,0-0.4,0.06-0.52,0.18c-0.12,0.11-0.2,0.24-0.26,0.4c-0.05,0.15-0.09,0.33-0.1,0.52
			l-0.04,0.51c-0.07,0.73-0.16,1.31-0.27,1.71c-0.12,0.42-0.18,0.76-0.18,1.01c0,0.2,0.05,0.34,0.16,0.42
			c0.1,0.08,0.23,0.12,0.4,0.12c0.12,0,0.22-0.1,0.38-0.37c0.13-0.22,0.25-0.45,0.38-0.68c0.12-0.23,0.23-0.45,0.33-0.66l0.03-0.07
			c0.13-0.27,0.21-0.38,0.25-0.41c0.27-0.26,0.55-0.43,0.84-0.52c0.29-0.09,0.6-0.13,0.92-0.13h1.33c0.34,0,0.66,0.02,0.95,0.07
			c0.27,0.05,0.38,0.12,0.39,0.17c0.01,0.06,0.02,0.18,0.03,0.38c0.01,0.19,0.01,0.33,0.01,0.4v10.41c0,0.39-0.02,0.73-0.06,0.99
			c-0.04,0.25-0.12,0.46-0.24,0.62c-0.11,0.16-0.29,0.28-0.51,0.38c-0.23,0.09-0.56,0.16-0.98,0.21c-0.03,0.01-0.1,0.02-0.25,0.02
			c-0.16,0-0.31,0.03-0.46,0.08c-0.13,0.05-0.28,0.17-0.28,0.45c0,0.32,0.21,0.38,0.3,0.39c0.13,0.02,0.25,0.02,0.37,0.02
			c0.52,0,1.04-0.02,1.55-0.06c1.02-0.07,2.2-0.06,3.23,0c0.57,0.04,1.14,0.05,1.72,0.05c0.18,0,0.33-0.01,0.45-0.02
			c0.18-0.03,0.26-0.19,0.26-0.5c0-0.14-0.06-0.38-0.49-0.43l-0.85-0.1c-0.3-0.03-0.59-0.11-0.86-0.25
			c-0.25-0.12-0.4-0.35-0.47-0.71c-0.04-0.22-0.07-0.45-0.07-0.67c-0.01-0.23-0.01-0.46-0.01-0.68c0.03-1.27,0.02-2.54-0.01-3.79
			c-0.04-1.23-0.04-2.5-0.01-3.78l0.04-2.63c0-0.32,0.02-0.56,0.05-0.72c0.04-0.18,0.09-0.25,0.11-0.28
			c0.03-0.03,0.07-0.05,0.12-0.05c0.19,0.02,0.4,0.02,0.73,0c0.4-0.02,0.94-0.02,1.48,0.02c0.32,0.02,0.62,0.06,0.9,0.11
			c0.27,0.05,0.51,0.13,0.7,0.23c0.18,0.09,0.3,0.21,0.36,0.35c0.08,0.2,0.11,0.41,0.1,0.63c-0.02,0.24-0.03,0.47-0.05,0.67
			c-0.03,0.22-0.02,0.41,0.01,0.56c0.02,0.11,0.11,0.31,0.43,0.31c0.28,0,0.47-0.19,0.59-0.57c0.1-0.32,0.17-0.7,0.22-1.14
			c0.05-0.42,0.09-0.87,0.13-1.33c0.04-0.44,0.1-0.79,0.2-1.05c0.07-0.19,0.06-0.39-0.01-0.6
			C323.56,29.91,323.41,29.71,323.03,29.71"/>
		<path fill="#0057A8" d="M343.15,30.53l-0.04-0.01c-0.38,0-0.78,0.01-1.17,0.03c-0.75,0.04-1.52,0.05-2.27-0.01
			c-0.39-0.03-0.77-0.04-1.14-0.04c-0.13,0-0.25,0.02-0.36,0.05c-0.09,0.03-0.25,0.11-0.25,0.38c0,0.31,0.15,0.46,0.27,0.53
			c0.15,0.09,0.33,0.15,0.54,0.19c0.2,0.04,0.39,0.07,0.6,0.09c0.17,0.03,0.32,0.09,0.43,0.18c0.1,0.09,0.18,0.28,0.22,0.56
			c0.04,0.3,0.06,0.64,0.06,1.02c0,0.39-0.01,0.79-0.02,1.2c-0.01,0.42-0.02,0.79-0.02,1.13v4.6c0,0.42-0.04,0.83-0.13,1.22
			c-0.13,0.72-0.3,1.32-0.53,1.81c-0.22,0.47-0.51,0.87-0.86,1.17c-0.35,0.3-0.78,0.52-1.28,0.65c-0.51,0.13-1.13,0.2-1.85,0.2
			c-0.6,0-1.16-0.06-1.64-0.19c-0.48-0.13-0.9-0.35-1.25-0.66c-0.35-0.32-0.63-0.75-0.85-1.3c-0.21-0.56-0.35-1.28-0.41-2.16
			c-0.03-0.43-0.04-0.86-0.05-1.33c-0.01-0.44-0.01-0.88-0.01-1.33v-3.96c0-0.21,0-0.44,0.01-0.69c0.01-0.24,0.02-0.47,0.05-0.7
			c0.02-0.22,0.04-0.43,0.07-0.61c0.03-0.18,0.06-0.31,0.1-0.4c0.08-0.19,0.22-0.32,0.42-0.38c0.24-0.07,0.47-0.13,0.7-0.17
			c0.25-0.04,0.47-0.09,0.67-0.15c0.25-0.08,0.38-0.26,0.38-0.51c0-0.23-0.13-0.37-0.37-0.41c-0.18-0.03-0.33-0.05-0.45-0.05
			c-0.5,0-1,0.02-1.49,0.07c-0.9,0.08-1.88,0.09-2.81,0c-0.46-0.04-0.92-0.07-1.38-0.07c-0.36,0-0.56,0.2-0.56,0.54
			c0,0.14,0.06,0.26,0.17,0.34c0.1,0.07,0.21,0.12,0.33,0.14c0.11,0.02,0.23,0.04,0.34,0.05c0.11,0,0.2,0.01,0.28,0.01h0.24
			c0.25,0,0.44,0.07,0.56,0.2c0.14,0.15,0.23,0.31,0.29,0.52c0.06,0.21,0.09,0.44,0.1,0.69c0.01,0.26,0.01,0.48,0.01,0.68
			c0,1.22-0.02,2.44-0.04,3.61c-0.03,1.21-0.04,2.43-0.04,3.62v0.8c0,0.13,0,0.26,0.01,0.39c0.01,0.13,0.02,0.26,0.03,0.39
			c0.09,0.85,0.3,1.56,0.64,2.12c0.34,0.56,0.78,1.01,1.31,1.35c0.53,0.33,1.14,0.58,1.81,0.72c0.67,0.14,1.38,0.21,2.11,0.21
			c0.62,0,1.26-0.05,1.91-0.14c0.65-0.1,1.29-0.26,1.9-0.49c0.71-0.28,1.27-0.69,1.65-1.21c0.38-0.51,0.67-1.09,0.86-1.73
			c0.19-0.63,0.3-1.3,0.34-2c0.04-0.7,0.05-1.37,0.05-1.99c0-0.39,0-0.78-0.01-1.16c-0.01-0.39-0.01-0.77-0.01-1.16
			c0-0.43,0-0.93-0.01-1.51c-0.01-0.57-0.01-1.12,0-1.65c0.01-0.52,0.03-0.98,0.07-1.37c0.06-0.52,0.15-0.58,0.15-0.58
			c0.02-0.01,0.11-0.05,0.37-0.09c0.21-0.03,0.44-0.07,0.67-0.12c0.24-0.05,0.45-0.13,0.63-0.22c0.27-0.14,0.33-0.34,0.33-0.48
			C343.54,30.84,343.47,30.65,343.15,30.53"/>
		<path fill="#0057A8" d="M29.96,57.85c0.01-0.25,0.01-0.5,0.01-0.76c0-0.07,0-0.14,0-0.2c0-0.02,0.01-0.05,0.02-0.06
			c0-0.01,0.02-0.02,0.07-0.04c0.03-0.01,0.1-0.03,0.23-0.03c0.08,0,0.14-0.01,0.21-0.03c0.12-0.03,0.19-0.13,0.19-0.27
			c0-0.07-0.03-0.13-0.09-0.19l-0.05-0.05h-0.65c-0.07,0-0.14,0.01-0.21,0.01c-0.19,0.02-0.36,0.01-0.49-0.01
			c-0.11-0.01-0.22-0.02-0.36-0.02h-0.07c-0.04,0-0.09,0.01-0.14,0.01c-0.12,0.02-0.2,0.11-0.2,0.24c0,0.18,0.11,0.25,0.16,0.27
			c0.06,0.02,0.13,0.04,0.21,0.05c0.06,0,0.12,0.01,0.18,0.02c0.03,0,0.06,0.02,0.07,0.02c0,0,0.02,0.03,0.03,0.12
			c0.01,0.08,0.02,0.15,0.02,0.22v0.13c0,0.11,0,0.22,0,0.33c0,0.11,0,0.22,0,0.34l-0.01,0.62c0,0.08-0.01,0.16-0.02,0.24
			c-0.01,0.06-0.02,0.08-0.03,0.09c-0.02,0.02-0.05,0.04-0.09,0.04c-0.06,0.02-0.12,0.03-0.18,0.04c-0.07,0.01-0.13,0.03-0.18,0.04
			c-0.11,0.04-0.18,0.13-0.18,0.24c0,0.12,0.06,0.21,0.17,0.25c0.06,0.02,0.12,0.03,0.19,0.03h0.09c0.07,0,0.13,0,0.19,0
			c0.05-0.01,0.1-0.01,0.15-0.02c0.04-0.01,0.08-0.01,0.13-0.01c0.13-0.01,0.33-0.01,0.51,0.01c0.2,0.03,0.41,0.03,0.6,0.01
			c0.15-0.02,0.24-0.12,0.24-0.27c0-0.12-0.08-0.21-0.19-0.24c-0.05-0.01-0.12-0.03-0.19-0.04c-0.06-0.01-0.13-0.03-0.2-0.04
			c-0.04-0.01-0.07-0.02-0.08-0.03c-0.01-0.01-0.03-0.03-0.04-0.07c-0.01-0.06-0.02-0.11-0.02-0.17V58.6
			C29.95,58.35,29.96,58.1,29.96,57.85"/>
		<path fill="#0057A8" d="M33.31,58.96c-0.09,0.06-0.19,0.09-0.32,0.09c-0.16,0-0.28-0.04-0.37-0.11c-0.1-0.08-0.18-0.18-0.24-0.3
			c-0.06-0.13-0.11-0.28-0.14-0.43c-0.03-0.16-0.04-0.32-0.04-0.46c0-0.08,0-0.15,0.01-0.22l0.02-0.17
			c0.03-0.03,0.07-0.07,0.11-0.11c0.06-0.05,0.12-0.11,0.19-0.15c0.07-0.04,0.14-0.09,0.22-0.12c0.2-0.08,0.41-0.04,0.55,0.04
			c0.1,0.06,0.17,0.13,0.23,0.22c0.06,0.09,0.11,0.2,0.14,0.33c0.03,0.13,0.05,0.26,0.05,0.39c0,0.12-0.01,0.25-0.04,0.39
			c-0.03,0.13-0.08,0.25-0.14,0.36C33.48,58.81,33.4,58.9,33.31,58.96 M34.25,56.75c-0.12-0.14-0.28-0.24-0.45-0.32
			c-0.29-0.13-0.65-0.15-0.97-0.06c-0.12,0.03-0.23,0.08-0.33,0.13c-0.03,0.02-0.06,0.03-0.09,0.05c0.07-0.19,0.15-0.38,0.25-0.56
			c0.18-0.31,0.41-0.59,0.69-0.83c0.06-0.06,0.13-0.11,0.19-0.16c0.06-0.04,0.13-0.09,0.19-0.13c0.02-0.01,0.05-0.02,0.09-0.04
			c0.05-0.02,0.09-0.04,0.14-0.07c0.05-0.03,0.1-0.06,0.14-0.09c0.07-0.06,0.11-0.13,0.11-0.2c0-0.07-0.03-0.14-0.09-0.2
			c-0.03-0.03-0.07-0.06-0.1-0.07l-0.04-0.03l-0.05,0c-0.07,0.01-0.14,0.03-0.22,0.06c-0.07,0.03-0.12,0.05-0.17,0.07
			c-0.32,0.15-0.62,0.33-0.89,0.56c-0.28,0.22-0.52,0.48-0.73,0.76c-0.21,0.28-0.38,0.59-0.49,0.92c-0.12,0.33-0.18,0.69-0.18,1.05
			c0,0.19,0.02,0.38,0.06,0.56c0.04,0.18,0.1,0.36,0.19,0.52c0.08,0.16,0.19,0.31,0.33,0.44c0.14,0.13,0.3,0.24,0.5,0.32
			c0.23,0.1,0.47,0.15,0.7,0.15c0.24,0,0.46-0.05,0.67-0.15c0.2-0.1,0.37-0.23,0.51-0.4c0.14-0.17,0.25-0.36,0.32-0.57
			c0.08-0.21,0.12-0.43,0.12-0.65c0-0.21-0.03-0.41-0.1-0.58C34.47,57.05,34.37,56.89,34.25,56.75"/>
		<path fill="#0057A8" d="M37.38,58.33c-0.13-0.12-0.28-0.21-0.46-0.27c-0.05-0.02-0.11-0.03-0.17-0.04
			c0.08-0.08,0.15-0.16,0.22-0.25c0.09-0.12,0.17-0.24,0.24-0.37c0.07-0.14,0.11-0.27,0.11-0.39c0-0.17-0.03-0.3-0.09-0.42
			c-0.06-0.11-0.14-0.21-0.24-0.29c-0.1-0.07-0.21-0.12-0.33-0.15c-0.23-0.06-0.48-0.07-0.73,0.03c-0.12,0.05-0.23,0.11-0.33,0.18
			c-0.1,0.07-0.19,0.15-0.25,0.23c-0.08,0.1-0.12,0.21-0.11,0.32c0.01,0.07,0.04,0.12,0.09,0.17c0.05,0.05,0.11,0.06,0.14,0.06
			c0.05,0,0.1-0.02,0.15-0.07c0.09-0.11,0.18-0.2,0.26-0.26c0.11-0.09,0.34-0.11,0.5,0.04c0.07,0.07,0.11,0.19,0.11,0.35
			c0,0.09-0.03,0.18-0.08,0.28c-0.06,0.11-0.14,0.21-0.23,0.31c-0.1,0.1-0.2,0.19-0.31,0.27c-0.11,0.08-0.22,0.15-0.3,0.19
			l-0.13,0.06c-0.16,0.08-0.18,0.19-0.18,0.25c0,0.16,0.11,0.28,0.26,0.28c0.06,0,0.12-0.03,0.21-0.09
			c0.04-0.03,0.08-0.05,0.11-0.07c0.06-0.03,0.11-0.04,0.17-0.04l0.03,0c0.09,0.01,0.18,0.02,0.26,0.04
			c0.09,0.02,0.17,0.05,0.23,0.1c0.07,0.05,0.13,0.11,0.17,0.18c0.05,0.07,0.09,0.16,0.11,0.25c0.03,0.09,0.04,0.18,0.04,0.27
			c0,0.18-0.03,0.34-0.1,0.48c-0.07,0.15-0.17,0.28-0.3,0.39c-0.13,0.12-0.28,0.22-0.45,0.3c-0.17,0.08-0.36,0.15-0.54,0.21
			c-0.06,0.01-0.11,0.04-0.14,0.09c-0.03,0.04-0.05,0.08-0.05,0.13c0,0.06,0.01,0.12,0.04,0.17c0.02,0.04,0.08,0.09,0.19,0.09h0l0,0
			c0.25,0,0.51-0.06,0.77-0.17c0.26-0.11,0.5-0.26,0.72-0.44c0.21-0.18,0.4-0.4,0.54-0.64c0.15-0.25,0.22-0.52,0.22-0.8
			c0-0.19-0.03-0.37-0.1-0.53C37.6,58.59,37.5,58.45,37.38,58.33"/>
		<path fill="#0057A8" d="M41.23,58.27c-0.02-0.06-0.08-0.13-0.19-0.17c-0.12-0.05-0.24-0.01-0.32,0.1l-0.19,0.27
			c-0.05,0.06-0.09,0.13-0.14,0.2c-0.05,0.07-0.1,0.13-0.13,0.19c0,0-0.03,0.02-0.15,0.05c-0.12,0.02-0.25,0.04-0.38,0.05
			c-0.12,0.01-0.24,0-0.35,0c0.04-0.04,0.08-0.09,0.13-0.14c0.09-0.1,0.19-0.2,0.28-0.32c0.1-0.12,0.2-0.25,0.28-0.37
			c0.09-0.13,0.17-0.25,0.23-0.37c0.07-0.13,0.12-0.24,0.14-0.34c0.11-0.38,0.07-0.7-0.1-0.94c-0.18-0.25-0.46-0.37-0.83-0.37
			c-0.07,0-0.14,0-0.21,0.01c-0.07,0-0.15,0.02-0.24,0.05c-0.08,0.03-0.17,0.07-0.26,0.13c-0.09,0.06-0.18,0.14-0.27,0.24
			c-0.02,0.02-0.04,0.05-0.07,0.09l-0.07,0.09c-0.03,0.04-0.06,0.09-0.08,0.13c-0.03,0.06-0.04,0.1-0.04,0.15
			c0,0.08,0.04,0.16,0.1,0.2c0.07,0.05,0.17,0.06,0.25,0.02c0.06-0.03,0.11-0.08,0.15-0.15c0.02-0.03,0.05-0.07,0.08-0.11
			c0.03-0.03,0.07-0.06,0.13-0.09c0.04-0.02,0.11-0.04,0.25-0.04c0.25,0,0.32,0.1,0.34,0.14c0.06,0.09,0.06,0.24-0.02,0.43
			c-0.05,0.12-0.11,0.25-0.19,0.38c-0.08,0.15-0.18,0.3-0.28,0.45c-0.11,0.16-0.22,0.32-0.34,0.47c-0.12,0.15-0.25,0.3-0.36,0.43
			c-0.07,0.07-0.08,0.14-0.08,0.18c0,0.04,0,0.17,0.1,0.24c0.04,0.03,0.1,0.06,0.16,0.06l0.05,0c0.09,0,0.15-0.06,0.18-0.1
			c0.1,0,0.21,0,0.34,0c0.14,0,0.27,0,0.38-0.01c0.27,0.01,0.5,0.03,0.68,0.06c0.19,0.03,0.35,0.05,0.47,0.06l0.03,0
			c0.1,0,0.2-0.07,0.22-0.22c0-0.04,0.01-0.11,0.03-0.2c0.01-0.09,0.04-0.2,0.08-0.33c0.04-0.13,0.11-0.27,0.21-0.43l0.05-0.07
			L41.23,58.27z"/>
		<polygon fill="#0057A8" points="21.93,26.95 35.04,20.71 48.15,26.95 		"/>
		<rect x="21.3" y="28.2" fill="#0057A8" width="27.47" height="1.25"/>
		<rect x="21.31" y="47.56" fill="#0057A8" width="7.49" height="3.75"/>
		<rect x="41.28" y="47.56" fill="#0057A8" width="7.49" height="3.75"/>
		<rect x="31.29" y="47.56" fill="#0057A8" width="2.5" height="3.75"/>
		<rect x="36.29" y="47.56" fill="#0057A8" width="2.5" height="3.75"/>
		<polygon fill="#0057A8" points="23.49,30.7 23.8,46.31 21.3,46.31 21.62,30.7 		"/>
		<polygon fill="#0057A8" points="28.49,30.7 28.8,46.31 26.3,46.31 26.61,30.7 		"/>
		<polygon fill="#0057A8" points="33.48,30.7 33.79,46.31 31.29,46.31 31.61,30.7 		"/>
		<polygon fill="#0057A8" points="38.47,30.7 38.78,46.31 36.29,46.31 36.6,30.7 		"/>
		<polygon fill="#0057A8" points="43.47,30.7 43.78,46.31 41.28,46.31 41.6,30.7 		"/>
		<polygon fill="#0057A8" points="48.46,30.7 48.77,46.31 46.28,46.31 46.59,30.7 		"/>
		<polygon fill="#0057A8" points="35.04,17.59 21.3,24.15 21.3,25.71 35.04,19.15 48.77,25.71 48.77,24.15 		"/>
	</g>
	<g>
		<g>
			<path fill="#0057A8" d="M68.37,86.51c-0.07-0.07-0.1-0.16-0.1-0.27V75.1c0-0.11,0.03-0.21,0.1-0.28
				c0.07-0.07,0.16-0.11,0.27-0.11h6.56c0.12,0,0.22,0.03,0.29,0.1c0.07,0.07,0.1,0.16,0.1,0.29v0.25c0,0.11-0.04,0.21-0.11,0.27
				c-0.07,0.07-0.17,0.1-0.28,0.1h-5.87v4.57h5.53c0.12,0,0.22,0.03,0.29,0.1c0.07,0.07,0.1,0.17,0.1,0.29v0.26
				c0,0.11-0.04,0.2-0.11,0.27c-0.07,0.07-0.17,0.1-0.28,0.1h-5.53v4.91c0,0.11-0.04,0.2-0.11,0.27c-0.07,0.07-0.17,0.1-0.28,0.1
				h-0.31C68.53,86.61,68.44,86.58,68.37,86.51z"/>
			<path fill="#0057A8" d="M80.64,85.6c-0.75-0.79-1.13-1.99-1.13-3.59v-6.9c0-0.11,0.03-0.21,0.1-0.28
				c0.07-0.07,0.16-0.11,0.27-0.11h0.31c0.13,0,0.22,0.03,0.29,0.1c0.07,0.07,0.1,0.16,0.1,0.29v6.95c0,1.25,0.29,2.18,0.87,2.79
				c0.58,0.61,1.39,0.92,2.45,0.92c1.04,0,1.85-0.31,2.43-0.92c0.58-0.61,0.87-1.54,0.87-2.79V75.1c0-0.13,0.04-0.22,0.11-0.29
				c0.07-0.07,0.17-0.1,0.28-0.1h0.31c0.11,0,0.2,0.04,0.27,0.11c0.07,0.07,0.1,0.17,0.1,0.28V82c0,1.62-0.37,2.82-1.12,3.6
				c-0.75,0.78-1.83,1.17-3.25,1.17S81.4,86.39,80.64,85.6z"/>
			<path fill="#0057A8" d="M95.88,86.51c-0.07-0.07-0.1-0.16-0.1-0.27V75.73h-3.37c-0.11,0-0.2-0.04-0.27-0.1
				c-0.07-0.07-0.1-0.16-0.1-0.27V75.1c0-0.11,0.03-0.21,0.1-0.28c0.07-0.07,0.16-0.11,0.27-0.11h7.79c0.12,0,0.22,0.03,0.29,0.1
				c0.07,0.07,0.1,0.16,0.1,0.29v0.25c0,0.11-0.04,0.21-0.11,0.27c-0.07,0.07-0.17,0.1-0.28,0.1h-3.35v10.51
				c0,0.11-0.04,0.2-0.11,0.27c-0.07,0.07-0.17,0.1-0.28,0.1h-0.31C96.03,86.61,95.94,86.58,95.88,86.51z"/>
			<path fill="#0057A8" d="M105.48,85.6c-0.75-0.79-1.13-1.99-1.13-3.59v-6.9c0-0.11,0.03-0.21,0.1-0.28
				c0.07-0.07,0.16-0.11,0.27-0.11h0.31c0.13,0,0.22,0.03,0.29,0.1c0.07,0.07,0.1,0.16,0.1,0.29v6.95c0,1.25,0.29,2.18,0.87,2.79
				c0.58,0.61,1.39,0.92,2.45,0.92c1.04,0,1.85-0.31,2.43-0.92c0.58-0.61,0.87-1.54,0.87-2.79V75.1c0-0.13,0.04-0.22,0.11-0.29
				c0.07-0.07,0.17-0.1,0.28-0.1h0.31c0.11,0,0.2,0.04,0.27,0.11c0.07,0.07,0.1,0.17,0.1,0.28V82c0,1.62-0.37,2.82-1.12,3.6
				c-0.75,0.78-1.83,1.17-3.25,1.17S106.23,86.39,105.48,85.6z"/>
			<path fill="#0057A8" d="M117.78,86.51c-0.07-0.07-0.1-0.16-0.1-0.27V75.08c0-0.11,0.03-0.2,0.1-0.27c0.07-0.07,0.16-0.1,0.27-0.1
				h0.32c0.11,0,0.2,0.03,0.27,0.1c0.07,0.07,0.1,0.16,0.1,0.27v10.51h5.87c0.12,0,0.22,0.03,0.29,0.1c0.07,0.07,0.1,0.17,0.1,0.29
				v0.26c0,0.11-0.04,0.2-0.11,0.27c-0.07,0.07-0.17,0.1-0.28,0.1h-6.56C117.94,86.61,117.85,86.58,117.78,86.51z"/>
			<path fill="#0057A8" d="M128.3,86.51c-0.07-0.07-0.1-0.15-0.1-0.24l0.03-0.19l4.3-11.03c0.09-0.23,0.25-0.34,0.49-0.34h0.58
				c0.24,0,0.4,0.11,0.49,0.34l4.3,11.03l0.03,0.19c0,0.09-0.03,0.17-0.1,0.24s-0.15,0.1-0.24,0.1h-0.34c-0.1,0-0.18-0.03-0.25-0.08
				c-0.06-0.06-0.11-0.11-0.13-0.17l-1.05-2.72h-6.02l-1.05,2.72c-0.02,0.06-0.07,0.11-0.13,0.17c-0.06,0.06-0.14,0.08-0.25,0.08
				h-0.34C128.45,86.61,128.37,86.58,128.3,86.51z M130.72,82.61h5.2l-2.6-6.7L130.72,82.61z"/>
			<path fill="#0057A8" d="M142.33,86.51c-0.07-0.07-0.1-0.16-0.1-0.27V75.1c0-0.11,0.03-0.21,0.1-0.28
				c0.07-0.07,0.16-0.11,0.27-0.11h4.44c1.12,0,1.97,0.29,2.55,0.87c0.58,0.58,0.87,1.3,0.87,2.18c0,0.67-0.15,1.22-0.44,1.65
				c-0.29,0.43-0.65,0.74-1.05,0.93c0.49,0.25,0.9,0.63,1.23,1.14c0.33,0.51,0.5,1.1,0.5,1.77c0,0.59-0.14,1.14-0.42,1.66
				s-0.68,0.93-1.22,1.24c-0.53,0.31-1.17,0.47-1.9,0.47h-4.56C142.49,86.61,142.39,86.58,142.33,86.51z M146.82,79.88
				c0.84,0,1.48-0.18,1.91-0.55c0.44-0.37,0.65-0.89,0.65-1.57c0-0.67-0.22-1.17-0.65-1.51s-1.07-0.51-1.91-0.51h-3.52v4.15H146.82z
				 M146.99,85.59c0.83,0,1.47-0.22,1.94-0.65c0.46-0.44,0.7-1,0.7-1.69c0-0.7-0.23-1.27-0.7-1.7c-0.46-0.43-1.11-0.65-1.94-0.65
				h-3.69v4.69H146.99z"/>
		</g>
	</g>
	<line fill="none" stroke="#0057A8" stroke-width="0.5" x1="65.99" y1="59.6" x2="343.54" y2="59.6"/>
</g>
</svg>
